<?xml version="1.0" standalone="no"?>
<!DOCTYPE svg PUBLIC "-//W3C//DTD SVG 1.1//EN" "http://www.w3.org/Graphics/SVG/1.1/DTD/svg11.dtd" >
<svg xmlns="http://www.w3.org/2000/svg">
<metadata>Generated by IcoMoon</metadata>
<defs>
<font id="icomoon" horiz-adv-x="1024">
<font-face units-per-em="1024" ascent="960" descent="-64" />
<missing-glyph horiz-adv-x="1024" />
<glyph unicode="&#x20;" horiz-adv-x="512" d="" />
<glyph unicode="&#xe900;" glyph-name="addr" d="M205.812 345.19c-0.829 1.258-1.652 2.522-2.468 3.791l-3.474 5.336 0.047 0.091c-38.124 61.48-60.281 134.919-60.281 213.803 0 216.379 166.713 391.789 372.364 391.789s372.364-175.41 372.364-391.789c0-83.189-24.642-160.322-66.664-223.76l-215.516-362.218c-26.289-44.183-83.417-58.69-127.601-32.401-12.24 7.283-22.646 17.277-30.417 29.214l-238.355 366.144zM512 394.083c91.4 0 165.495 77.96 165.495 174.128s-74.095 174.128-165.495 174.128c-91.4 0-165.495-77.96-165.495-174.128s74.095-174.128 165.495-174.128z" />
<glyph unicode="&#xe901;" glyph-name="change5" d="M90.667 576l116.923 280.615c9.937 23.849 33.24 39.385 59.077 39.385h490.667c25.837 0 49.14-15.535 59.077-39.385l116.923-280.615h26.667c35.346 0 64-28.654 64-64v-288c0-35.346-28.654-64-64-64h-96v-128c0-26.51-21.49-48-48-48s-48 21.49-48 48v128h-512v-128c0-26.51-21.49-48-48-48s-48 21.49-48 48v128h-96c-35.346 0-64 28.654-64 64v288c0 35.346 28.654 64 64 64h26.667zM64 512v-288h896v288h-896zM256 304c-35.346 0-64 28.654-64 64s28.654 64 64 64c35.346 0 64-28.654 64-64s-28.654-64-64-64zM768 304c-35.346 0-64 28.654-64 64s28.654 64 64 64c35.346 0 64-28.654 64-64s-28.654-64-64-64zM757.333 832h-490.667l-106.667-256h704l-106.667 256z" />
<glyph unicode="&#xe902;" d="M1024 448c0-282.77-229.23-512-512-512s-512 229.23-512 512c0 282.77 229.23 512 512 512s512-229.23 512-512z" />
<glyph unicode="&#xe903;" glyph-name="bank-deposit" d="M179.2 584.533v-51.2h170.667v51.2h-170.667zM640 584.533h238.933v-51.2c0-18.851-15.282-34.133-34.133-34.133v-307.2c18.851 0 34.133-15.282 34.133-34.133v-51.2h34.133c18.851 0 34.133-15.282 34.133-34.133v-97.992c0-18.851-15.282-34.133-34.133-34.133h-802.133c-18.851 0-34.133 15.282-34.133 34.133v97.992c0 18.851 15.282 34.133 34.133 34.133h34.133v51.2c0 18.851 15.282 34.133 34.133 34.133v307.2c-18.851 0-34.133 15.282-34.133 34.133v51.2h238.933v-51.2c0-18.851-15.282-34.133-34.133-34.133v-307.2c18.851 0 34.133-15.282 34.133-34.133v-51.2h256v51.2c0 18.851 15.282 34.133 34.133 34.133v307.2c-18.851 0-34.133 15.282-34.133 34.133v51.2zM844.8 106.667v51.2h-170.667v-51.2h170.667zM349.867 106.667v51.2h-170.667v-51.2h170.667zM810.667 499.2h-102.4v-307.2h102.4v307.2zM315.733 499.2h-102.4v-307.2h102.4v307.2zM110.933 72.533v-102.4h802.133v102.4h-802.133zM674.133 584.533v-51.2h170.667v51.2h-170.667zM521.467 916.11c-5.733 3.822-13.201 3.822-18.934 0l-424.865-266.177c-4.748-3.165-7.6-8.494-7.6-14.2 0-9.426 7.641-17.067 17.067-17.067h849.731c5.706 0 11.035 2.852 14.2 7.6 5.228 7.843 3.109 18.439-4.733 23.667l-424.865 266.177zM540.401 944.511l424.865-266.177c23.528-15.685 29.886-47.474 14.2-71.002-9.496-14.244-25.482-22.799-42.601-22.799h-849.731c-28.277 0-51.2 22.923-51.2 51.2 0 17.119 8.556 33.105 22.799 42.601l424.865 266.177c17.198 11.465 39.603 11.465 56.801 0zM512 789.333c23.564 0 42.667-19.103 42.667-42.667s-19.103-42.667-42.667-42.667c-23.564 0-42.667 19.103-42.667 42.667s19.103 42.667 42.667 42.667zM512 823.467c-42.415 0-76.8-34.385-76.8-76.8s34.385-76.8 76.8-76.8c42.415 0 76.8 34.385 76.8 76.8s-34.385 76.8-76.8 76.8z" />
<glyph unicode="&#xe904;" glyph-name="data-analysis" d="M754.040 347.537c19.38-14.38 31.027-37.196 31.027-61.67 0-27.438-14.638-52.792-38.4-66.511s-53.038-13.719-76.8 0c-2.477 1.43-4.855 2.987-7.127 4.659-7.266-5.292-14.852-10.23-22.739-14.784-79.207-45.73-176.793-45.73-256 0-7.888 4.554-15.473 9.492-22.739 14.784-2.272-1.672-4.65-3.229-7.127-4.659-23.762-13.719-53.038-13.719-76.8 0s-38.4 39.073-38.4 66.511c0 24.475 11.647 47.291 31.027 61.67-9.115 26.445-13.96 54.576-13.96 83.396 0 91.46 48.793 175.973 128 221.703 16.799 9.699 34.426 17.341 52.528 22.926 4.102 21.766 17.488 40.976 37.072 52.282 23.762 13.719 53.038 13.719 76.8 0 19.584-11.307 32.97-30.516 37.072-52.282 18.102-5.585 35.728-13.227 52.528-22.926 79.207-45.73 128-130.243 128-221.703 0-28.821-4.845-56.951-13.96-83.396zM722.663 361.307c7.322 22.144 11.204 45.609 11.204 69.627 0 79.265-42.288 152.51-110.933 192.142-11.943 6.895-24.368 12.591-37.107 17.087-5.414-18.873-17.953-35.252-35.426-45.34-23.762-13.719-53.038-13.719-76.8 0-17.473 10.088-30.012 26.467-35.426 45.34-12.739-4.496-25.164-10.192-37.107-17.087-68.646-39.633-110.933-112.877-110.933-192.142 0-24.018 3.882-47.482 11.204-69.627 17.832 3.401 36.595 0.424 52.796-8.929 23.762-13.719 38.4-39.073 38.4-66.511 0-12.732-3.152-25.014-8.904-35.894 5.603-3.973 11.419-7.706 17.438-11.181 68.646-39.633 153.221-39.633 221.867 0 6.019 3.475 11.835 7.208 17.438 11.181-5.752 10.88-8.904 23.163-8.904 35.894 0 27.438 14.638 52.792 38.4 66.511 16.201 9.353 34.964 12.33 52.796 8.929zM512-64c-282.77 0-512 229.23-512 512s229.23 512 512 512c282.77 0 512-229.23 512-512s-229.23-512-512-512zM512-29.867c263.918 0 477.867 213.948 477.867 477.867s-213.948 477.867-477.867 477.867c-263.918 0-477.867-213.948-477.867-477.867s213.948-477.867 477.867-477.867zM294.4 248.916c13.201-7.622 29.466-7.622 42.667 0s21.333 21.707 21.333 36.95c0 15.243-8.132 29.329-21.333 36.95s-29.466 7.622-42.667 0c-13.201-7.622-21.333-21.707-21.333-36.95s8.132-29.329 21.333-36.95zM490.667 624.383c13.201-7.622 29.466-7.622 42.667 0s21.333 21.707 21.333 36.95c0 15.243-8.132 29.329-21.333 36.95s-29.466 7.622-42.667 0c-13.201-7.622-21.333-21.707-21.333-36.95s8.132-29.329 21.333-36.95zM686.933 248.916c13.201-7.622 29.466-7.622 42.667 0s21.333 21.707 21.333 36.95c0 15.243-8.132 29.329-21.333 36.95s-29.466 7.622-42.667 0c-13.201-7.622-21.333-21.707-21.333-36.95s8.132-29.329 21.333-36.95zM469.333 504.834c26.402 15.243 58.931 15.243 85.333 0s42.667-43.414 42.667-73.901c0-30.487-16.264-58.658-42.667-73.901s-58.931-15.243-85.333 0c-26.402 15.243-42.667 43.414-42.667 73.901s16.264 58.658 42.667 73.901zM486.4 386.593c15.841-9.146 35.359-9.146 51.2 0s25.6 26.048 25.6 44.34c0 18.292-9.759 35.195-25.6 44.34s-35.359 9.146-51.2 0c-15.841-9.146-25.6-26.048-25.6-44.34s9.759-35.195 25.6-44.34z" />
<glyph unicode="&#xe905;" glyph-name="red-circle" d="M512 64c212.077 0 384 171.923 384 384s-171.923 384-384 384c-212.077 0-384-171.923-384-384s171.923-384 384-384zM512-64c-282.77 0-512 229.23-512 512s229.23 512 512 512c282.77 0 512-229.23 512-512s-229.23-512-512-512z" />
<glyph unicode="&#xe906;" glyph-name="tel" d="M841.256-8.536l-11.782-14.043c-11.296-13.464-29.212-19.418-46.32-15.393v0.002c-96.128 22.616-159.354 41.685-189.677 57.208-74.090 37.928-124.98 70.66-162.255 100.009-8.499 4.934-18.012 11.634-28.538 20.1-57.011 45.856-214.216 210.326-284.99 350.248-19.8 39.144-45.705 118.239-77.718 237.283h-0.001c-3.551 13.204-1.073 27.039 6.298 38.026 2.149 6.656 5.836 12.926 11.063 18.256 34.779 35.459 65.926 62.995 93.441 82.608 27.831 19.838 58.345 36.132 91.543 48.883l-0.001 0.002c17.159 6.59 36.59 2.465 49.591-10.528 35.355-35.332 64.199-69.704 86.53-103.118 21.056-31.506 38.335-65.171 51.837-100.994l0.002 0.001c6.447-17.107 2.284-36.403-10.643-49.33l-114.594-114.594c-2.93-2.93-6.154-5.388-9.577-7.374l88.035-139.147 57.363-78.233 97.387-66.45 50.271-28.886c2.032 7.711 6.070 14.992 12.092 21.014l116.347 116.347c12.927 12.927 32.224 17.090 49.33 10.643l-0.001-0.002c35.823-13.502 69.488-30.78 100.994-51.837 33.414-22.331 67.786-51.174 103.118-86.53 12.993-13.002 17.118-32.432 10.528-49.591l-0.002 0.001c-12.75-33.198-29.044-63.713-48.883-91.543-18.974-26.618-49.237-57.63-90.789-93.035z" />
<glyph unicode="&#xe907;" d="M512-40.727c-269.917 0-488.727 218.811-488.727 488.727s218.811 488.727 488.727 488.727c269.917 0 488.727-218.811 488.727-488.727s-218.811-488.727-488.727-488.727zM626.584 206.815l-239.439 239.439 239.439 239.439c10.906 10.906 10.906 28.589 0 39.495s-28.589 10.906-39.495 0l-259.187-259.187c-10.906-10.906-10.906-28.589 0-39.495l259.187-259.187c10.906-10.906 28.589-10.906 39.495 0s10.906 28.589 0 39.495z" />
<glyph unicode="&#xe908;" glyph-name="xindaizhengce" d="M512-64c-282.77 0-512 229.23-512 512s229.23 512 512 512c282.77 0 512-229.23 512-512s-229.23-512-512-512zM512-29.867c263.918 0 477.867 213.948 477.867 477.867s-213.948 477.867-477.867 477.867c-263.918 0-477.867-213.948-477.867-477.867s213.948-477.867 477.867-477.867zM513.832 341.65c-27.857-1.421-55.769-1.421-84.455 0.063-25.097 2.51-40.139 8.843-47.025 31.847-4.183 18.645-0.62 38.188 10.334 54.824 1.16 1.596 1.316 1.778 7.037 8.385 2.923 3.377 4.647 5.435 4.92 5.83 1.251 1.807 2.83 3.342 4.638 4.534 0.168 0.466 0.257 0.961 0.257 1.466 0 1.161-0.468 2.273-1.298 3.084l-1.404 1.553c-55.188 69.11-58.987 165.791-1.408 223.368 56.025 55.079 144.403 59.519 205.608 10.378 60.993-48.534 75.535-135.267 33.51-201.342-7.575-11.373-15.879-22.244-25.879-33.615-0.844-0.813-1.32-1.934-1.32-3.106s0.477-2.293 1.642-3.424l12.645-12.865c16.842-16.035 21.704-40.967 11.963-62.493-9.449-19.73-30.423-31.158-52.034-28.51l-77.73 0.022zM425.648 414.566c-4.041-4.667-5.114-5.924-4.897-5.592-5.414-8.24-7.252-18.323-5.406-26.754 1.073-3.562 5.267-5.327 16.6-6.481 26.699-1.362 53.449-1.362 81.017 0.022h79.749l2.538-0.19c7.263-1.092 14.388 2.685 17.403 8.971 3.603 7.966 1.775 17.339-4.954 23.758l-12.72 12.937c-7.518 7.247-11.766 17.24-11.766 27.682s4.247 20.435 10.746 26.61c8.012 9.188 15.42 18.886 21.981 28.73 32.46 51.042 21.174 118.35-26.216 156.060-47.769 38.354-116.682 34.892-160.264-7.954-43.915-43.915-41.081-120.728 3.506-177.148 6.859-7.147 10.706-16.682 10.706-26.619 0-10.346-4.17-20.256-11.568-27.49-0.824-0.806-1.724-1.523-2.685-2.142-0.986-1.175-2.207-2.596-3.77-4.401zM332.8 251.733c-9.426 0-17.067 7.641-17.067 17.067s7.641 17.067 17.067 17.067h358.4c9.426 0 17.067-7.641 17.067-17.067s-7.641-17.067-17.067-17.067h-358.4zM392.533 174.933c-9.426 0-17.067 7.641-17.067 17.067s7.641 17.067 17.067 17.067h238.933c9.426 0 17.067-7.641 17.067-17.067s-7.641-17.067-17.067-17.067h-238.933z" />
<glyph unicode="&#xe909;" glyph-name="zichanguanli" d="M499.261 539.022c-4.205-3.62-8.284-7.404-12.226-11.349-7.18-7.185-13.805-14.801-19.849-22.784h-211.186c-9.426 0-17.067 7.641-17.067 17.067s7.641 17.067 17.067 17.067h243.261zM424.686 399.644c-1.089-9.24-1.581-18.586-1.454-27.988-0.028-2.051-0.026-4.1 0.006-6.146h-167.237c-9.426 0-17.067 7.641-17.067 17.067s7.641 17.067 17.067 17.067h168.686zM452.886 260.267c7.071-12.050 15.339-23.489 24.73-34.133h-221.615c-9.426 0-17.067 7.641-17.067 17.067s7.641 17.067 17.067 17.067h196.886zM512-64c-282.77 0-512 229.23-512 512s229.23 512 512 512c282.77 0 512-229.23 512-512s-229.23-512-512-512zM512-29.867c263.918 0 477.867 213.948 477.867 477.867s-213.948 477.867-477.867 477.867c-263.918 0-477.867-213.948-477.867-477.867s213.948-477.867 477.867-477.867zM256 644.267c-9.426 0-17.067 7.641-17.067 17.067s7.641 17.067 17.067 17.067h358.4c9.426 0 17.067-7.641 17.067-17.067s-7.641-17.067-17.067-17.067h-358.4zM644.976 542.555l0.197 17.066c50.311-0.581 98.348-20.648 133.541-55.823 35.277-35.259 54.75-82.804 54.082-131.678 0.668-49.337-18.805-96.881-54.082-132.14-35.193-35.175-83.23-55.242-133.955-55.823-50.272 0.639-98.251 20.732-133.395 55.9-35.228 35.253-54.67 82.764-54.001 131.6-0.668 49.299 18.773 96.81 54.001 132.063 35.144 35.169 83.123 55.261 133.395 55.9l0.217-17.065zM535.508 479.592c-28.742-28.762-44.558-67.415-44.015-107.935-0.543-40.058 15.274-78.711 44.015-107.473 28.826-28.846 68.287-45.371 109.271-45.897 41.431 0.478 80.94 16.983 109.806 45.834 28.782 28.767 44.624 67.447 44.081 107.998 0.543 40.089-15.299 78.769-44.081 107.536-28.818 28.803-68.243 45.301-109.599 45.831-41.323-0.579-80.7-17.097-109.478-45.895zM664.323 268.407h-27.429v38.931h-47.956v23.359h47.956v23.712h-47.956v23.005h38.754l-44.063 82.817h30.791c2.3-4.247 28.49-59.635 35.392-73.969l38.754 73.438h29.375l-1.416-2.654-44.063-80.162h38.4v-22.474h-46.54v-23.182h46.186v-23.359h-46.186v-39.462z" />
<glyph unicode="&#xe90a;" glyph-name="zip-code" d="M1024 690.344v-428.526c0-102.825-83.356-186.182-186.182-186.182h-651.636c-102.825 0-186.182 83.356-186.182 186.182v442.182c0 1.504 0.024 3.003 0.071 4.496l472.54-294.149c10.784-6.713 23.197-9.196 35.117-7.694 12.72-2.373 26.217-0.3 38.021 6.54l478.251 277.151zM1004.88 774.571l-493.89-286.214-480.967 299.394c-0.485 0.302-0.973 0.595-1.464 0.879 25.512 33.433 65.775 55.006 111.077 55.006h744.727c51.374 0 96.268-27.743 120.517-69.065z" />
<glyph unicode="&#xe90b;" glyph-name="activity" d="M145.835 25.6h734.379c8.461 0.016 15.315 6.871 15.332 15.33v429.058h33.764c8.461 0.016 15.315 6.871 15.332 15.33v167.482c-0.016 8.461-6.871 15.315-15.33 15.332h-208.784l5.148 7.908c12.672 19.298 20.212 42.951 20.212 68.365 0 69.436-56.289 125.724-125.724 125.724-41.083 0-77.564-19.706-100.507-50.181l-4.328-5.839-4.124 5.518c-23.141 31.239-59.877 51.268-101.291 51.268-69.42 0-125.696-56.276-125.696-125.696 0-25.748 7.742-49.688 21.025-69.619l4.86-7.448h-215.41c-8.461-0.016-15.315-6.871-15.332-15.33v-167.511c0.016-8.461 6.871-15.315 15.33-15.332h35.813v-429.056c0.032-8.449 6.881-15.287 15.33-15.303zM530.062 777.415l0.967 1.365c0.652 0.825 1.232 1.76 1.698 2.757 14.84 34.475 48.434 58.114 87.55 58.114 0.054 0 0.107 0 0.161 0 0.634 0.016 1.389 0.025 2.148 0.025 51.354 0 92.985-41.631 92.985-92.985 0-0.719-0.008-1.436-0.024-2.151-0.024-27.685-11.964-52.682-30.986-70.057-1.178-1.164-2.124-2.418-2.876-3.793l-1.521-2.673h-150.016v109.255zM530.062 637.525h384v-136.903h-384v136.903zM530.062 469.988h334.82v-413.724h-334.82v413.724zM499.399 56.263h-338.233v413.724h338.233v-413.724zM410.226 839.794c0.040 0 0.087 0 0.134 0 39.121 0 72.72-23.638 87.295-57.41 0.365-0.942 0.518-1.224 0.7-1.483l1.044-1.808v-110.933h-148.85l-1.479 2.588c-0.784 1.464-1.731 2.72-2.842 3.809-19.076 17.455-31.002 42.448-31.035 70.226-0.015 0.623-0.023 1.349-0.023 2.078 0 51.338 41.618 92.956 92.956 92.956 0.738 0 1.474-0.009 2.209-0.026zM110.023 500.622v136.903h389.376v-136.903h-389.376z" />
<glyph unicode="&#xe90c;" glyph-name="addr2" d="M511.445 938.88c-197.735-3.568-356.66-164.701-356.66-362.952 0-2.165 0.019-4.326 0.057-6.482-0.004-203.537 356.604-614.886 356.604-614.886s356.651 411.349 356.651 615.211c0.033 1.819 0.051 3.964 0.051 6.114 0 198.275-158.944 359.427-356.368 362.99l-0.334 0.005zM503.808 756.139c82.236-0.315 148.779-67.053 148.779-149.332 0-82.475-66.859-149.333-149.333-149.333s-149.333 66.858-149.333 149.332c0.17 82.511 67.097 149.334 149.632 149.334 0.090 0 0.18 0 0.27 0zM503.808 713.472c58.745-0.218 106.283-47.891 106.283-106.666 0-58.91-47.756-106.667-106.667-106.667s-106.666 47.756-106.667 106.666c0 0 0 0 0 0 0 58.91 47.756 106.667 106.667 106.667 0.075 0 0.15 0 0.225 0z" />
<glyph unicode="&#xe90d;" glyph-name="change1" d="M285.781 476.444c-15.709 0-28.444-12.735-28.444-28.444s12.735-28.444 28.444-28.444h312.889c15.709 0 28.444 12.735 28.444 28.444s-12.735 28.444-28.444 28.444h-312.889zM285.781 277.333c-15.709 0-28.444-12.735-28.444-28.444s12.735-28.444 28.444-28.444h199.111c15.709 0 28.444 12.735 28.444 28.444s-12.735 28.444-28.444 28.444h-199.111zM285.781 675.556c-15.709 0-28.444-12.735-28.444-28.444s12.735-28.444 28.444-28.444h312.889c15.709 0 28.444 12.735 28.444 28.444s-12.735 28.444-28.444 28.444h-312.889zM740.892 504.889h56.889l-0.003 312.215c0.028 0.726 0.042 1.456 0.042 2.19 0 30.602-24.808 55.41-55.41 55.41-0.714 0-1.425-0.014-2.030-0.037h-570.126c-30.48-0.142-55.145-24.895-55.145-55.409 0-0.27 0.002-0.54 0.005-0.769l0.001-740.54c-0.011-0.458-0.017-0.918-0.017-1.379 0-30.508 24.731-55.239 55.239-55.239 0.175 0 0.351 0.001 0.499 0.002h570.055v56.889h-568.889v739.556h568.889v-312.889zM740.892 78.222c15.709 0 28.444-12.735 28.444-28.444s-12.735-28.444-28.444-28.444c-15.709 0-28.444 12.735-28.444 28.444s12.735 28.444 28.444 28.444zM769.337 533.333c15.709 0 28.444-12.735 28.444-28.444s-12.735-28.444-28.444-28.444c-15.709 0-28.444 12.735-28.444 28.444s12.735 28.444 28.444 28.444zM638.493 289.821c-5.146-5.147-8.328-12.257-8.328-20.11s3.183-14.963 8.328-20.11l60.323-60.323c5.118-4.948 12.088-7.992 19.769-7.992 15.709 0 28.444 12.735 28.444 28.444 0 7.681-3.044 14.651-7.985 19.761l-60.331 60.331c-5.147 5.146-12.257 8.328-20.11 8.328s-14.963-3.183-20.11-8.328zM698.823 229.49l160.91 160.91c5.18 5.358 12.431 8.684 20.46 8.684 15.709 0 28.444-12.735 28.444-28.444 0-8.029-3.326-15.28-8.676-20.452l-160.918-160.918c-5.004-4.476-11.646-7.211-18.927-7.211-15.709 0-28.444 12.735-28.444 28.444 0 7.309 2.757 13.975 7.288 19.013z" />
<glyph unicode="&#xe90e;" glyph-name="change2" d="M426.667 817.778h170.667v-56.889h-170.667v56.889zM682.667 704.199c0.449-0.027 0.975-0.042 1.504-0.042 14.313 0 26.023 11.139 26.936 25.221l0.004 120.059c-1.852 14.208-13.88 25.067-28.444 25.067s-26.592-10.859-28.429-24.922l-0.015-120.123c0.917-14.162 12.628-25.301 26.941-25.301 0.529 0 1.054 0.015 1.576 0.045zM341.589 704.199c0.449-0.027 0.975-0.042 1.504-0.042 14.313 0 26.023 11.139 26.936 25.221l0.004 120.059c-1.852 14.208-13.88 25.067-28.444 25.067s-26.592-10.859-28.429-24.922l-0.015-120.123c0.918-14.161 12.629-25.299 26.941-25.299 0.519 0 1.035 0.015 1.546 0.044zM796.444 817.778h-28.444v-56.889h28.444c0.144 0.001 0.314 0.001 0.485 0.001 46.861 0 84.85-37.989 84.85-84.85 0-0.17-0.001-0.341-0.002-0.511v-56.863h-739.556v56.889c-0.001 0.144-0.001 0.314-0.001 0.485 0 46.861 37.989 84.85 84.85 84.85 0.17 0 0.341-0.001 0.511-0.002h28.418v56.889h-28.444c-77.342-2.927-139.295-64.881-142.214-141.95l-0.008-540.717c0-74.268 39.054-113.778 113.778-113.778h625.778c74.724 0 113.778 39.509 113.778 113.778v540.444c-2.927 77.342-64.881 139.295-141.95 142.214zM824.889 78.222h-625.778c-47.73 0-56.889 9.614-56.889 56.889v426.667h739.556v-426.667c0-47.275-9.159-56.889-56.889-56.889zM512 504.889c-7.308-11.6-16.844-21.137-28.078-28.228-16.502-10.288-35.219-19.833-54.762-27.766l-2.494-57.784c34.124 9.062 62.523 18.779 90.051 30.175l-4.718-286.175h56.889v369.778h-56.889z" />
<glyph unicode="&#xe90f;" glyph-name="change3" d="M858.652 21.333h-682.667v28.444c0 271.957 224.455 322.389 227.015 322.844 3.007 0.445 5.631 1.030 8.182 1.784-3.631 2.284-7.897 5.299-13.558 9.082-52.708 35.214-107.861 130.19-107.861 235.179 0 126.436 74.98 238.763 199.111 254.18v1.82h56.889v-1.991c121.088-15.957 193.422-129.707 193.422-257.764 0-105.017-51.684-197.689-102.172-231.424-5.689-3.783-9.956-6.827-13.17-9.216 1.783-0.554 3.963-1.050 6.195-1.389l1.599-0.26c2.56-0.455 227.015-50.887 227.015-322.844v-28.444zM233.984 78.222h566.67c-15.872 195.84-165.291 235.634-178.972 238.393-32.088 0.587-58.314 24.924-61.868 56.143-0.027 23.616 14.195 36.956 45.484 58.033 43.748 29.212 76.8 105.671 76.8 184.121 0 107.691-61.924 202.439-164.978 202.78-94.208-0.313-170.667-82.148-170.667-199.111 0-77.511 37.803-157.895 82.489-187.733 31.545-21.077 45.511-34.418 45.511-57.742-3.681-31.727-30.218-56.176-62.54-56.547-6.609-1.423-161.801-39.225-177.929-238.336zM990.293 106.667h-87.524v56.889h30.578c-2.702 79.697-50.809 147.534-119.159 178.68-28.499 1.382-50.51 22.574-52.661 49.371-0.012 23.313 16.287 35.402 39.298 49.937 28.956 18.347 105.927 67.044 105.927 120.235 0 78.478-34.361 113.579-111.445 113.778v56.889c107.691-0.284 166.997-60.9 166.997-170.667 0-82.489-87.467-140.146-128.768-166.343 28.444-11.861 156.615-75.463 156.615-260.324v-28.444zM33.764 106.667h87.182v56.889h-30.464c2.58 79.615 50.519 147.437 118.71 178.679 28.43 1.432 50.365 22.617 52.457 49.376 0.012 23.308-16.202 35.397-39.128 49.932-28.843 18.347-105.5 67.044-105.5 120.235 0 78.478 34.133 113.579 110.933 113.778l-0.171 56.889c-107.264-0.284-166.315-60.9-166.315-170.667 0-82.489 87.097-140.146 128.228-166.343-28.444-11.861-155.989-75.463-155.989-260.324v-28.444z" />
<glyph unicode="&#xe910;" glyph-name="change4" d="M938.667 569.543v91.989l-426.667 213.134-426.667-213.106v-91.989l72.619-36.238 25.429 50.802-41.159 20.594v21.675l369.778 184.889 369.778-184.889v-21.675l-41.159-20.565 25.429-50.83zM142.222 77.54v484.238h56.889v-483.556h170.667l-0.796-56.889h-170.411c-0.701-0.033-1.523-0.051-2.349-0.051-29.848 0-54.044 24.197-54.044 54.044 0 0.778 0.016 1.553 0.049 2.323zM852.196 248.889h-396.629l43.89 227.556h308.878zM530.489 305.778h246.784l-14.62 113.778h-217.543zM455.111 78.222h56.889v-56.889h-56.889v56.889zM824.889 78.222h56.889v-28.444c0-15.709-12.735-28.444-28.444-28.444h-28.444v56.889zM881.778 248.889v-113.778h-426.667v113.778h426.667zM938.667 305.778h-540.444v-227.556h540.444v227.556zM483.556 220.444h56.889v-56.889h-56.889v56.889zM796.444 220.444h56.889v-56.889h-56.889v56.889z" />
<glyph unicode="&#xe911;" glyph-name="download" d="M512 903.111c-251.351 0-455.111-203.76-455.111-455.111s203.76-455.111 455.111-455.111c251.351 0 455.111 203.76 455.111 455.111s-203.76 455.111-455.111 455.111zM512 38.4c-226.216 0-409.6 183.384-409.6 409.6s183.384 409.6 409.6 409.6c226.216 0 409.6-183.384 409.6-409.6s-183.384-409.6-409.6-409.6zM672.882 480.199l-138.126-138.183v333.54h-45.511v-333.54l-138.126 138.183-32.199-32.199 193.081-193.081 32.142 32.199 160.939 160.882z" />
<glyph unicode="&#xe912;" glyph-name="fkbz" horiz-adv-x="1023" d="M989.678 112.456c13.864 2.653 24.513 13.74 26.479 27.62 3.923 15.831 6.5 34.007 7.182 52.666-5.376 15.75-9.275 33.5-10.933 51.896l-0.062 0.858c-2.173 13.665-12.65 24.369-26.015 26.857l-4.655 0.031c-35.594 0.1-64.462 28.75-64.914 64.25v1.752c0.34 5.842 1.264 11.311 2.721 16.559 0.299 1.033 0.724 3.084 1.044 5.169l0.043 1.43 0.389 1.217c1.523 4 2.405 8.627 2.405 13.459 0 12.229-5.649 23.138-14.48 30.26l-64.29 35.883h-16.656c-0.605 0.039-1.313 0.062-2.025 0.062-10.163 0-19.259-4.573-25.341-11.773l-0.895-1.111c-12.905-13.485-29.576-23.269-48.321-27.664-17.892 3.275-32.938 10.989-45.13 21.84-2.496 1.86-5.087 3.622-7.081 5.098l-1.192 1.010c-7.112 7.586-17.115 12.388-28.241 12.64-0.964 0.261-2.019 0.411-3.109 0.411-2.511 0-4.836-0.794-6.738-2.144l-1.648-1.219-69.292-36.576c-8.866-7.181-14.487-18.066-14.487-30.264 0-4.843 0.886-9.479 2.505-13.754 2.305-7.013 3.778-15.405 3.976-24.111 0.005-0.355 0.007-0.656 0.007-0.957 0-35.909-29.11-65.018-65.018-65.018-0.193 0-0.386 0.001-0.579 0.003h-3.701c-13.72-2.567-24.295-13.449-26.373-27.122-0.416-3.375-0.925-6.146-1.579-8.861-3.177-13.256-5.277-29.212-5.716-45.582-0.026-1.358-0.037-2.585-0.037-3.815 0-16.865 2.089-33.241 6.023-48.885l0.794 0.291 0.414-1.995c1.946-14.059 12.604-25.154 26.27-27.737l3.856-0.032c0.163 0.001 0.356 0.002 0.55 0.002 35.952 0 65.096-29.144 65.096-65.096 0-0.301-0.002-0.602-0.006-0.903-0.349-5.783-1.272-11.234-2.721-16.466-0.303-1.076-0.728-3.181-1.045-5.321l-0.041-1.455-0.363-1.192c-1.514-3.989-2.391-8.602-2.391-13.419 0-12.222 5.643-23.126 14.466-30.249l62.709-35.054c4.51 1.868 9.747 2.952 15.237 2.952 1.019 0 2.029-0.037 3.029-0.111 0.477-0.032 1.191-0.055 1.91-0.055 10.187 0 19.303 4.583 25.399 11.8l0.869 1.060c13.227 15.756 31.344 27.021 51.996 31.466 22.309-3.985 40.774-15.57 53.629-31.801 7.224-7.557 17.090-12.214 28.045-12.461 0.882-0.097 1.852-0.151 2.835-0.151 4.542 0 8.812 1.169 12.523 3.223l65.403 36.534c8.855 7.209 14.465 18.11 14.465 30.321 0 4.724-0.84 9.251-2.378 13.442-2.352 7.054-3.853 15.498-4.056 24.263-0.006 0.364-0.008 0.674-0.008 0.984 0 35.909 29.11 65.018 65.018 65.018 0.184 0 0.368-0.001 0.552-0.002h3.676zM975.223 164.652c-0.389-3.963-0.751-7.771-0.751-10.957v-5.932l-5.88-0.777c-50.854-6.42-89.789-49.403-89.789-101.481 0-0.914 0.012-1.826 0.036-2.735 0.279-10.831 2.681-21.163 6.807-30.567l2.722-5.357-57.998-31.421-21.474 21.578c-16.009 12.364-36.187 20.052-58.132 20.719-22.139-1.318-42.13-8.888-58.645-20.937-2.277-2.372-5.048-4.626-7.457-6.595-3.611-2.504-6.597-5.639-8.86-9.271l-3.289-6.634-55.848 32.69 2.798 5.673c3.925 8.879 6.335 19.209 6.629 30.068 0.003 0.246 0.003 0.407 0.003 0.567 0 52.578-38.725 96.11-89.209 103.631l-6.428 0.847v5.88c-0.243 4.278-0.714 8.229-1.411 12.101-1.218 6.922-2.068 15.713-2.264 24.664 0.213 7.239 0.892 13.938 2.009 20.488 0.788 4.243 1.429 10.284 1.659 16.43l0.007 6.178 5.854 0.777c50.866 6.408 89.815 49.397 89.815 101.484 0 0.913-0.012 1.824-0.036 2.731-0.277 10.842-2.69 21.183-6.833 30.59l-2.723 5.334 57.973 31.395 4.119-4.067c4.671-4.954 9.966-9.243 15.778-12.764l1.085-0.628c14.543-13.038 33.862-21.010 55.042-21.010 20.989 0 40.149 7.828 54.721 20.723 3.706 3.622 7.826 7.027 12.211 10.077 2.257 1.508 3.948 2.837 5.532 4.281l3.54 3.543 58.050-31.344-2.901-5.854c-3.901-8.89-6.301-19.227-6.603-30.089-0.003-0.258-0.004-0.428-0.004-0.598 0-52.563 38.714-96.084 89.184-103.605l6.454-0.847v-5.932c0.23-4.265 0.692-8.218 1.382-12.091 1.149-6.549 1.996-14.964 2.263-23.525 1.116-5.079 1.751-10.582 1.751-16.233 0-3.972-0.314-7.871-0.918-11.673zM452.693-0.821h-335.401c-35.615 0.085-64.511 28.735-64.992 64.248v1.729c1.632 199.097 152.755 362.395 346.537 383.226l42.899 0.149c35.721 2.979 101.62 12.537 135.321 42.56l15.076 11.449c59.084 47.39 96.589 119.578 96.589 200.526 0 141.632-114.815 256.447-256.447 256.447-0.563 0-1.125-0.002-1.687-0.005-137.252-4.279-246.959-116.638-246.959-254.621 0-0.305 0.001-0.61 0.002-0.914 0.003-81.133 37.435-153.57 95.979-200.948l30.146-18.255-31.084-12.382c-164.598-64.619-279.011-222.117-279.011-406.337 0-0.415 0.001-0.83 0.002-1.245-0.006-0.376-0.009-0.896-0.009-1.416 0-64.793 52.525-117.318 117.318-117.318 0.368 0 0.735 0.002 1.102 0.005h334.646c12.814 1.609 22.628 12.438 22.628 25.559 0 0.304-0.005 0.606-0.016 0.907 0.176 1.023 0.276 2.253 0.276 3.506 0 12.679-10.224 22.971-22.878 23.079zM236.242 704.175c0.544 111.004 90.656 200.78 201.736 200.78 111.417 0 201.738-90.321 201.738-201.738s-90.321-201.738-201.738-201.738c-0.017 0-0.035 0-0.052 0-111.469 0.456-201.658 90.927-201.658 202.462 0 0.064 0 0.128 0 0.193zM768.486 283.421l-0.855 0.155c-5.814 1.295-12.493 2.040-19.346 2.046-24.911-0.051-47.434-10.213-63.696-26.598-17.722-17.759-28.677-42.266-28.677-69.331 0-7.097 0.753-14.017 2.184-20.686 7.231-37.861 37.005-67.775 74.842-75.232 6.172-1.281 12.57-1.957 19.127-1.957 51.502 0 93.253 41.751 93.253 93.253 0 6.665-0.699 13.166-2.028 19.435-6.022 39.102-35.806 70.439-74.172 78.799zM750.638 135.769v0c-0.015 0-0.034 0-0.052 0-30.272 0-54.812 24.54-54.812 54.812s24.54 54.812 54.812 54.812c30.272 0 54.812-24.54 54.812-54.812-0.304-30.131-24.634-54.479-54.729-54.812z" />
<glyph unicode="&#xe913;" glyph-name="fvbz" d="M570.368 880.896l-65.843 64.461c-9.504 9.238-22.493 14.934-36.813 14.934s-27.309-5.696-36.825-14.946l-215.975-211.418c-9.407-9.131-15.244-21.893-15.244-36.019s5.837-26.889 15.232-36.007l65.881-64.473c3.859-3.753 9.135-6.067 14.95-6.067s11.091 2.314 14.955 6.072l-0.005-0.005 93.568-91.597-394.010-385.766c-6.585-6.387-10.671-15.318-10.671-25.203s4.087-18.816 10.663-25.195l64.93-63.548c6.649-6.462 15.736-10.447 25.754-10.447s19.105 3.985 25.762 10.456l394.052 385.732 82.099-80.358c-3.804-3.722-6.162-8.907-6.162-14.643s2.358-10.922 6.158-14.64l65.847-64.464c9.503-9.231 22.487-14.922 36.8-14.922s27.297 5.691 36.813 14.934l215.974 211.418c9.408 9.135 15.246 21.902 15.246 36.032s-5.838 26.897-15.234 36.020l-65.855 64.447c-3.859 3.753-9.135 6.067-14.95 6.067s-11.091-2.314-14.955-6.072l-1.557-1.531-292.096 285.952 1.562 1.536c3.796 3.72 6.149 8.901 6.149 14.63s-2.353 10.91-6.145 14.627l-0.003 0.003zM690.483 259.917l-21.888 21.427c-3.804 3.722-6.162 8.907-6.162 14.643s2.358 10.922 6.158 14.64l194.743 190.647c3.868 3.743 9.146 6.050 14.963 6.050s11.095-2.307 14.969-6.055l21.882-21.422c3.804-3.722 6.162-8.907 6.162-14.643s-2.358-10.922-6.158-14.64l-194.768-190.647c-3.864-3.741-9.138-6.047-14.95-6.047s-11.086 2.306-14.956 6.053l0.006-0.006zM635.238 343.27l-114.56 112.128-394.061-385.715c-6.649-6.462-15.736-10.447-25.754-10.447s-19.105 3.985-25.762 10.456l0.009-0.008c-6.578 6.39-10.66 15.32-10.66 25.203s4.082 18.813 10.652 25.195l394.069 385.749-125.926 123.29 193.178 189.082 291.994-285.722-193.178-189.107zM257.997 712.55l194.739 190.643c3.868 3.743 9.146 6.050 14.963 6.050s11.095-2.307 14.969-6.055l22.778-22.292c3.804-3.722 6.162-8.907 6.162-14.643s-2.358-10.922-6.158-14.64l-194.768-190.647c-3.864-3.741-9.138-6.047-14.95-6.047s-11.086 2.306-14.956 6.053l-22.778 22.318c-3.796 3.72-6.149 8.901-6.149 14.63s2.353 10.91 6.145 14.627l0.003 0.003zM1024-64.128h-620.442v22.451c0.835 67.31 55.595 121.554 123.025 121.554 0.408 0 0.816-0.002 1.223-0.006h372.008c0.345 0.003 0.753 0.005 1.161 0.005 67.424 0 122.179-54.247 122.999-121.477l0.001-22.529zM452.966-19.2h521.677c-10.473 31.671-39.808 54.12-74.387 54.12-0.146 0-0.292 0-0.438-0.001h-372.074c-0.129 0.001-0.282 0.001-0.435 0.001-34.574 0-63.905-22.45-74.21-53.568z" />
<glyph unicode="&#xe914;" glyph-name="jiekuan" d="M768 12.8h256v-34.133h-290.133c-18.851 0-34.133 15.282-34.133 34.133h-119.467l-349.303 123.153-230.963 157.44 12.971 15.155c0.896 1.021 1.68 2.176 2.312 3.421l16.547 16.41c15.47 13.737 35.955 22.127 58.401 22.127 14.358 0 27.914-3.433 39.892-9.524l211.211-106.316c-10.629 13.561-17.411 30.594-18.456 49.16l1.389 19.107h256l85.333-68.267h34.133v17.067c0 18.851 15.282 34.133 34.133 34.133h290.133v-34.133h-256c-18.851 0-34.133-15.282-34.133-34.133v-170.667c0-18.851 15.282-34.133 34.133-34.133zM699.733 46.933v153.6h-34.133l-85.333 68.267h-221.867c3.533-18.654 15.275-47.701 34.133-51.2h136.533v-34.133h-136.533l-85.333 17.067s-202.479 155.307-256 102.4l198.622-134.332 330.445-121.668h119.467zM512 354.133h-204.8c-3.533 0-73.882-2.423-112.759 41.899-22.391 25.6-28.484 52.651-23.774 94.635 16.503 131.789 132.966 250.88 170.667 273.067l-51.2 51.2s-7.322 48.742 12.715 56.917l21.197 8.158c2.342 20.941 19.84 37.103 41.159 37.325 12.171-9.354 27.211-15.531 43.602-17.042 17.238 1.519 32.456 7.691 45.009 17.199 21.189-0.298 38.77-16.49 41.101-37.292l21.214-8.348c20.412-18.278 12.937-56.917 12.937-56.917l-51.2-51.2c36.523-22.187 154.163-141.278 170.667-273.067 1.573-6.872 2.474-14.765 2.474-22.867 0-27.663-10.505-52.872-27.743-71.856-39.976-43.073-107.731-41.81-111.264-41.81zM494.933 832l-17.067 17.067-17.067 34.133c-14.493-9.603-32.011-15.794-50.88-17.050-19.495 1.463-36.971 7.623-51.953 17.312l-16.634-34.396-17.067-17.067 51.2-68.267h68.267zM614.4 490.667c-16.503 129.451-139.452 231.936-153.6 238.933h-102.4c-12.954-5.837-137.097-109.483-153.6-238.933-0.97-4.822-1.526-10.365-1.526-16.038 0-20.627 7.344-39.539 19.559-54.264 28.166-31.331 83.189-32.099 84.367-32.099h204.8s54.784 0.768 83.063 32.239c12.796 14.837 20.59 34.303 20.59 55.589 0 5.149-0.456 10.191-1.33 15.089zM477.867 558.933v-34.133h-51.2v-17.067h51.2v-34.133h-51.2v-34.133h-34.133v34.133h-51.2v34.133h51.2v17.067h-51.2v34.133h42.667l-58.692 58.692 24.235 24.218 60.058-60.143 60.16 60.143 24.218-24.218-58.692-58.692h42.581z" />
<glyph unicode="&#xe915;" glyph-name="jrdk" d="M955.733-64h-887.467c-37.703 0-68.267 30.564-68.267 68.267v682.667c0 37.703 30.564 68.267 68.267 68.267h384.973l-180.326 162.816 22.835 25.020 193.178-174.421 239.326 191.488 22.835-25.020-224.836-179.883h429.483c37.703 0 68.267-30.564 68.267-68.267v-682.667c0-37.703-30.564-68.267-68.267-68.267zM989.867 686.933c0 18.851-15.282 34.133-34.133 34.133h-887.467c-18.851 0-34.133-15.282-34.133-34.133v-682.667c0-18.851 15.282-34.133 34.133-34.133h887.467c18.851 0 34.133 15.282 34.133 34.133v682.667zM887.467 89.6c-28.277 0-51.2 22.923-51.2 51.2s22.923 51.2 51.2 51.2c28.277 0 51.2-22.923 51.2-51.2s-22.923-51.2-51.2-51.2zM887.467 157.867c-9.426 0-17.067-7.641-17.067-17.067s7.641-17.067 17.067-17.067c9.426 0 17.067 7.641 17.067 17.067s-7.641 17.067-17.067 17.067zM887.467 260.267c-28.277 0-51.2 22.923-51.2 51.2s22.923 51.2 51.2 51.2c28.277 0 51.2-22.923 51.2-51.2s-22.923-51.2-51.2-51.2zM887.467 328.533c-9.426 0-17.067-7.641-17.067-17.067s7.641-17.067 17.067-17.067c9.426 0 17.067 7.641 17.067 17.067s-7.641 17.067-17.067 17.067zM699.733 55.467h-529.067c-37.703 0-68.267 30.564-68.267 68.267v443.733c0 37.703 30.564 68.267 68.267 68.267h529.067c37.703 0 68.267-30.564 68.267-68.267v-443.733c0-37.703-30.564-68.267-68.267-68.267zM733.867 567.467c0 18.851-15.282 34.133-34.133 34.133h-529.067c-18.851 0-34.133-15.282-34.133-34.133v-443.733c0-18.851 15.282-34.133 34.133-34.133h529.067c18.851 0 34.133 15.282 34.133 34.133v443.733z" />
<glyph unicode="&#xe916;" glyph-name="kefu" d="M967.111 120.889h-113.778c-31.38 0.097-56.792 25.509-56.889 56.88v284.454c0.097 31.38 25.509 56.792 56.88 56.889h55.476c-15.135 207.255-187.001 369.67-396.8 369.67s-381.664-162.414-396.724-368.369l55.39-1.3c31.38-0.097 56.792-25.509 56.889-56.88v-284.454h-28.444v284.444c0 15.709-12.735 28.444-28.444 28.444h-113.778c-15.709 0-28.444-12.735-28.444-28.444v-284.444c12.233-21.815 26.79-40.541 43.724-56.812 41.609-24.823 105.040-56.965 155.387-56.965h257.422c6.848 32.691 35.435 56.889 69.674 56.889 39.274 0 71.111-31.838 71.111-71.111s-31.838-71.111-71.111-71.111c-34.239 0-62.827 24.198-69.593 56.426l-257.504 0.463s-83.911-9.671-199.111 85.333c-17.027 13.376-27.989 33.807-28.443 56.815l-0.001 284.519c0.097 31.38 25.509 56.792 56.88 56.889h29.876c15.048 223.071 199.681 398.317 425.244 398.317s410.197-175.246 425.174-397.013l29.937-1.304c31.38-0.097 56.792-25.509 56.889-56.88v-284.454c-0.097-31.38-25.509-56.792-56.88-56.889zM554.667 7.111c23.564 0 42.667 19.103 42.667 42.667s-19.103 42.667-42.667 42.667c-23.564 0-42.667-19.103-42.667-42.667s19.103-42.667 42.667-42.667zM995.556 462.222c0 15.709-12.735 28.444-28.444 28.444h-113.778c-15.709 0-28.444-12.735-28.444-28.444v-284.444c0-15.709 12.735-28.444 28.444-28.444h113.778c15.709 0 28.444 12.735 28.444 28.444v284.444z" />
<glyph unicode="&#xe917;" glyph-name="laba" d="M521.305 912.718c-2.721 1.337-5.923 2.118-9.307 2.118-5.601 0-10.702-2.141-14.528-5.65l-305.314-274.64h-125.373c-37.1-0.985-66.8-31.294-66.8-68.541 0-0.54 0.006-1.079 0.019-1.616l-0.001-233.481c-0.011-0.457-0.017-0.996-0.017-1.536 0-37.246 29.7-67.556 66.709-68.539l125.464-0.002 305.375-274.699c3.795-3.478 8.873-5.61 14.45-5.61 3.392 0 6.6 0.789 9.451 2.193 7.618 3.884 12.831 11.795 12.831 20.923 0 0.075 0 0.15-0.001 0.224v887.663c0.001 0.063 0.001 0.138 0.001 0.213 0 9.128-5.213 17.039-12.824 20.918zM178.087 307.534h-111.304c-12.365 0.32-22.267 10.42-22.267 22.832 0 0.19 0.002 0.38 0.007 0.57l-0.001 233.533c-0.004 0.161-0.006 0.351-0.006 0.541 0 12.413 9.902 22.513 22.238 22.832l111.334 0.001v-280.487zM489.739 54.65l-267.13 240.417v305.508l267.13 240.417v-786.076zM845.913 447.688c0.036 1.521 0.057 3.312 0.057 5.107 0 124.161-98.995 225.199-222.361 228.492l-0.305-46.741c100.187-3.907 179.925-86.070 179.925-186.858s-79.738-182.951-179.571-186.847l-0.354-46.759c123.67 3.299 222.666 104.338 222.666 228.498 0 1.796-0.021 3.587-0.062 5.373zM623.304 868.152v-46.703c200.918-7.152 361.081-171.752 361.081-373.76s-160.162-366.608-360.429-373.742l-0.652-46.722c223.585 11.128 400.653 195.117 400.653 420.463s-177.068 409.335-399.661 420.424z" />
<glyph unicode="&#xe918;" glyph-name="liulan" d="M512 755.2c266.24 0 460.8-240.64 460.8-307.2s-194.56-307.2-460.8-307.2c-261.12 0-460.8 220.16-460.8 307.2s199.68 307.2 460.8 307.2zM512 806.4c-281.6 0-512-235.52-512-358.4s230.4-358.4 512-358.4 512 261.12 512 358.4-230.4 358.4-512 358.4v0zM512 601.6c81.92 0 153.6-66.56 153.6-153.6s-66.56-153.6-153.6-153.6-153.6 71.68-153.6 153.6 66.56 153.6 153.6 153.6zM512 652.8c-112.64 0-204.8-92.16-204.8-204.8s92.16-204.8 204.8-204.8 204.8 92.16 204.8 204.8-92.16 204.8-204.8 204.8v0z" />
<glyph unicode="&#xe919;" glyph-name="mhr" d="M955.733-64h-887.467c-37.703 0-68.267 30.564-68.267 68.267v699.733h34.133v-699.733c0-18.851 15.282-34.133 34.133-34.133h426.667v60.126c-218.283 109.227-426.667-25.993-426.667-25.993v750.933s36.352 68.267 136.533 68.267v-34.133c-4.196 0.482-9.059 0.758-13.986 0.758-34.219 0-65.338-13.276-88.486-34.957l0.072-699.667c260.096 119.467 409.6 0 409.6 0s149.504 119.467 409.6 0v699.733c-23.077 21.615-54.195 34.891-88.414 34.891-4.927 0-9.789-0.275-14.573-0.811l0.588 34.187c100.181 0 136.533-68.267 136.533-68.267v-750.933s-208.384 135.253-426.667 25.993v-60.126h426.667c18.851 0 34.133 15.282 34.133 34.133v699.733h34.133v-699.733c0-37.703-30.564-68.267-68.267-68.267zM819.2 857.6h-17.067v17.067h-17.067v17.067h17.067v17.067h17.067v-17.067h17.067v-17.067h-17.067v-17.067zM204.8 516.267c0 169.662 137.538 307.2 307.2 307.2s307.2-137.538 307.2-307.2h-34.133c0 150.811-122.256 273.067-273.067 273.067s-273.067-122.256-273.067-273.067h-34.133zM529.067 106.667h-34.133v580.267h34.133v-580.267zM307.2 516.267h-34.133c0 131.959 106.974 238.933 238.933 238.933s238.933-106.974 238.933-238.933h-34.133c0 113.108-91.692 204.8-204.8 204.8s-204.8-91.692-204.8-204.8zM853.333 516.267c0 188.513-152.82 341.333-341.333 341.333s-341.333-152.82-341.333-341.333h-34.133c0 207.365 168.102 375.467 375.467 375.467s375.467-168.102 375.467-375.467h-34.133zM682.667 908.8h-17.067v17.067h-17.067v17.067h17.067v17.067h17.067v-17.067h17.067v-17.067h-17.067v-17.067zM187.733 874.667h-17.067v34.133h-34.133v17.067h34.133v34.133h17.067v-34.133h34.133v-17.067h-34.133v-34.133z" />
<glyph unicode="&#xe91a;" glyph-name="next" horiz-adv-x="1025" d="M1024.487 447.968c0-282.822-229.273-512.095-512.095-512.095s-512.095 229.273-512.095 512.095c0 282.808 229.249 512.071 512.051 512.095 282.707-0.313 511.802-229.393 512.139-512.062zM986.409 447.968c0 0.013 0 0.027 0 0.042 0 261.84-212.263 474.103-474.103 474.103s-474.103-212.263-474.103-474.103c0-261.81 212.215-474.055 474.014-474.103 261.758 0.253 473.894 212.323 474.255 474.026zM424.539 723.499c-3.473 3.358-8.211 5.428-13.433 5.428s-9.959-2.070-13.438-5.433c-3.42-3.437-5.537-8.183-5.537-13.423 0-0.009 0-0.018 0-0.027 0.011-5.252 2.125-10.009 5.544-13.476l252.957-252.957-252.896-252.959c-3.459-3.448-5.6-8.217-5.6-13.486 0-5.216 2.098-9.943 5.496-13.382 3.443-3.438 8.199-5.566 13.452-5.566s10.009 2.128 13.454 5.568l266.349 266.54c3.454 3.44 5.595 8.196 5.606 13.452 0 0.040 0 0.086 0 0.131 0 5.2-2.147 9.898-5.602 13.258z" />
<glyph unicode="&#xe91b;" glyph-name="notice" d="M85.732 604.388c0.338 8.090 6.978 14.52 15.12 14.52 0.224 0 0.448-0.005 0.67-0.015l24.26 0.001c0.191 0.009 0.415 0.014 0.641 0.014 8.153 0 14.807-6.424 15.173-14.487l0.001-312.922c-0.369-8.126-7.047-14.575-15.231-14.575-0.205 0-0.41 0.004-0.613 0.012l-24.262-0.001c-0.173-0.007-0.377-0.011-0.581-0.011-8.173 0-14.838 6.455-15.176 14.544l-0.001 312.919zM199.509 775.054c0.455 8.211 7.224 14.696 15.508 14.696 0.268 0 0.534-0.007 0.799-0.020l24.937 0.002c0.228 0.012 0.494 0.019 0.762 0.019 8.284 0 15.053-6.485 15.506-14.656l0.002-654.262c-0.457-8.241-7.251-14.75-15.565-14.75-0.248 0-0.495 0.006-0.74 0.017l-24.939-0.001c-0.21-0.010-0.457-0.016-0.705-0.016-8.314 0-15.108 6.509-15.563 14.71l-0.002 654.263zM312.548 718.564c0.621 8.002 7.266 14.259 15.373 14.259 0.376 0 0.748-0.013 1.117-0.040l25.152 0.003c0.319 0.024 0.692 0.037 1.068 0.037 8.107 0 14.753-6.258 15.37-14.206l0.003-483.267c-0.621-8.002-7.266-14.259-15.373-14.259-0.376 0-0.748 0.013-1.117 0.040l-25.152-0.003c-0.304-0.021-0.658-0.033-1.015-0.033-8.117 0-14.775 6.25-15.422 14.2l-0.004 483.269zM426.325 889.23c0.679 7.885 7.247 14.029 15.25 14.029 0.359 0 0.715-0.012 1.068-0.037l24.984 0.003c0.305 0.022 0.661 0.034 1.020 0.034 8.003 0 14.571-6.143 15.246-13.972l0.004-881.835c-0.681-7.915-7.274-14.082-15.307-14.082-0.339 0-0.675 0.011-1.009 0.033l-24.986-0.002c-0.288-0.019-0.625-0.030-0.963-0.030-8.033 0-14.626 6.167-15.303 14.025l-0.004 881.835zM541.525 831.545c0.428 8.045 7.056 14.407 15.169 14.407 0.227 0 0.453-0.005 0.678-0.015l24.26 0.001c0.209 0.010 0.454 0.016 0.7 0.016 8.103 0 14.718-6.369 15.114-14.374l0.001-766.67c-0.397-8.040-7.012-14.409-15.115-14.409-0.246 0-0.491 0.006-0.734 0.018l-24.655-0.001c-0.193-0.009-0.419-0.014-0.646-0.014-8.114 0-14.741 6.361-15.168 14.369l-0.002 766.388zM655.303 718.279c0.307 8.146 6.986 14.634 15.179 14.634 0.224 0 0.446-0.005 0.667-0.014l24.26 0.001c0.173 0.007 0.377 0.011 0.581 0.011 8.204 0 14.895-6.48 15.233-14.601l0.001-482.107c-0.34-8.182-7.056-14.686-15.291-14.686-0.184 0-0.368 0.003-0.551 0.010l-24.265-0.001c-0.173-0.007-0.375-0.011-0.579-0.011-8.224 0-14.927 6.512-15.235 14.66l-0.001 482.104zM769.081 547.612c0.427 8.109 7.106 14.523 15.283 14.523 0.247 0 0.493-0.006 0.737-0.017l24.428 0.001c0.21 0.010 0.455 0.016 0.703 0.016 8.177 0 14.856-6.414 15.282-14.485l0.002-198.466c-0.458-8.114-7.149-14.52-15.337-14.52-0.228 0-0.455 0.005-0.681 0.015l-24.43-0.001c-0.194-0.009-0.421-0.014-0.649-0.014-8.188 0-14.879 6.406-15.335 14.48l-0.002 198.469zM881.778 493.511c1.428 6.63 7.241 11.527 14.197 11.527 0.731 0 1.45-0.054 2.152-0.159l24.895 0.010c0.623 0.095 1.342 0.149 2.073 0.149 6.957 0 12.769-4.897 14.18-11.431l0.017-91.118c-1.454-6.63-7.277-11.52-14.242-11.52-0.715 0-1.419 0.052-2.107 0.151l-24.896-0.009c-0.609-0.090-1.313-0.142-2.028-0.142-6.965 0-12.788 4.889-14.224 11.423l-0.018 91.119z" />
<glyph unicode="&#xe91c;" glyph-name="notice1" d="M512 960c-282.77 0-512-229.23-512-512s229.23-512 512-512c282.77 0 512 229.23 512 512s-229.23 512-512 512zM512 917.333c259.206 0 469.333-210.128 469.333-469.333s-210.128-469.333-469.333-469.333c-259.206 0-469.333 210.128-469.333 469.333s210.128 469.333 469.333 469.333zM213.632 565.291c0.253 6.067 5.233 10.89 11.34 10.89 0.168 0 0.336-0.004 0.502-0.011l18.195 0.001c0.143 0.006 0.311 0.010 0.48 0.010 6.115 0 11.105-4.818 11.38-10.865l0.001-234.691c-0.277-6.095-5.286-10.931-11.424-10.931-0.154 0-0.307 0.003-0.46 0.009l-18.197-0.001c-0.13-0.005-0.283-0.008-0.436-0.008-6.129 0-11.128 4.841-11.382 10.908l-0.001 234.69zM298.965 693.291c0.342 6.158 5.418 11.022 11.631 11.022 0.201 0 0.401-0.005 0.599-0.015l18.703 0.001c0.171 0.009 0.37 0.014 0.571 0.014 6.213 0 11.29-4.864 11.63-10.992l0.001-490.697c-0.343-6.181-5.438-11.063-11.674-11.063-0.186 0-0.371 0.004-0.555 0.013l-18.705-0.001c-0.158-0.008-0.343-0.012-0.529-0.012-6.236 0-11.331 4.882-11.672 11.032l-0.001 490.697zM383.744 650.923c0.466 6.001 5.45 10.694 11.53 10.694 0.282 0 0.561-0.010 0.838-0.030l18.864 0.002c0.24 0.018 0.519 0.028 0.801 0.028 6.080 0 11.064-4.693 11.528-10.655l0.002-362.45c-0.466-6.001-5.45-10.694-11.53-10.694-0.282 0-0.561 0.010-0.838 0.030l-18.864-0.002c-0.228-0.016-0.493-0.025-0.761-0.025-6.088 0-11.081 4.688-11.567 10.65l-0.003 362.452zM469.077 778.923c0.509 5.914 5.435 10.522 11.437 10.522 0.269 0 0.536-0.009 0.801-0.028l18.738 0.002c0.229 0.016 0.496 0.026 0.765 0.026 6.002 0 10.928-4.608 11.434-10.479l0.003-661.376c-0.511-5.936-5.455-10.561-11.48-10.561-0.254 0-0.507 0.008-0.757 0.024l-18.739-0.002c-0.216-0.014-0.468-0.023-0.723-0.023-6.025 0-10.97 4.625-11.477 10.518l-0.003 661.376zM555.477 735.659c0.321 6.034 5.292 10.805 11.377 10.805 0.17 0 0.34-0.004 0.508-0.011l18.195 0.001c0.157 0.008 0.34 0.012 0.525 0.012 6.077 0 11.039-4.777 11.335-10.78l0.001-575.003c-0.298-6.030-5.259-10.807-11.336-10.807-0.185 0-0.368 0.004-0.551 0.013l-18.492-0.001c-0.145-0.007-0.314-0.010-0.484-0.010-6.085 0-11.056 4.771-11.376 10.777l-0.001 574.791zM640.811 650.709c0.231 6.11 5.239 10.975 11.384 10.975 0.168 0 0.335-0.004 0.501-0.011l18.195 0.001c0.13 0.005 0.283 0.008 0.436 0.008 6.153 0 11.171-4.86 11.425-10.951l0.001-361.58c-0.255-6.137-5.292-11.015-11.468-11.015-0.138 0-0.276 0.002-0.413 0.007l-18.199-0.001c-0.13-0.005-0.282-0.008-0.434-0.008-6.168 0-11.195 4.884-11.426 10.995l-0.001 361.578zM726.144 522.709c0.32 6.082 5.33 10.892 11.462 10.892 0.185 0 0.37-0.004 0.553-0.013l18.321 0.001c0.157 0.008 0.342 0.012 0.527 0.012 6.133 0 11.142-4.81 11.461-10.864l0.001-148.85c-0.343-6.085-5.362-10.89-11.503-10.89-0.171 0-0.341 0.004-0.511 0.011l-18.323-0.001c-0.145-0.007-0.315-0.010-0.487-0.010-6.141 0-11.159 4.805-11.501 10.86l-0.001 148.852zM810.667 482.133c1.071 4.973 5.431 8.645 10.648 8.645 0.549 0 1.088-0.041 1.614-0.119l18.671 0.007c0.467 0.071 1.006 0.112 1.555 0.112 5.217 0 9.577-3.672 10.635-8.573l0.013-68.338c-1.090-4.973-5.458-8.64-10.681-8.64-0.537 0-1.064 0.039-1.58 0.113l-18.672-0.007c-0.457-0.068-0.985-0.106-1.521-0.106-5.224 0-9.591 3.667-10.668 8.567l-0.013 68.339z" />
<glyph unicode="&#xe91d;" glyph-name="pre" d="M0 447.968c0.012-282.802 229.271-512.053 512.074-512.053 282.811 0 512.074 229.263 512.074 512.074 0 282.788-229.227 512.038-512.007 512.074-282.713-0.301-511.816-229.389-512.141-512.064zM38.077 447.968c0 0.019 0 0.041 0 0.063 0 261.851 212.272 474.124 474.124 474.124s474.124-212.272 474.124-474.124c0-261.829-212.236-474.088-474.057-474.124-261.725 0.301-473.818 212.35-474.191 474.025zM599.969 723.499c3.47 3.357 8.205 5.426 13.422 5.426s9.952-2.069 13.427-5.431c3.42-3.437 5.537-8.183 5.537-13.423 0-0.009 0-0.018 0-0.027-0.002-5.254-2.118-10.014-5.544-13.475l-252.958-252.958 252.875-252.959c4.056-3.511 6.607-8.667 6.607-14.419 0-10.515-8.524-19.039-19.039-19.039-5.726 0-10.861 2.527-14.351 6.527l-266.369 266.563c-3.454 3.44-5.595 8.196-5.606 13.452 0 0.040 0 0.086 0 0.131 0 5.2 2.147 9.898 5.602 13.258z" />
<glyph unicode="&#xe91e;" glyph-name="sanjiao" d="M512 748.695l512-602.353h-1024z" />
<glyph unicode="&#xe91f;" glyph-name="slbz" d="M1024.333 661.418v121.894l-512.32 176.919-512.32-176.919v-121.894h128.202v-512.32h-21.487c-58.937 0-106.715-47.778-106.715-106.715 0-0.009 0-0.018 0-0.027v0.001-106.741h1024.641v106.741c0 58.951-47.79 106.741-106.741 106.741h-21.461v512.32h128.202zM42.307 704.109v48.896l469.629 162.022 469.629-162.022v-48.896h-939.259zM426.553 149.097h-128.202v512.32h128.202v-512.32zM469.245 661.418h85.382v-512.32h-85.382v512.32zM597.447 661.418h128.202v-512.32h-128.202v512.32zM170.509 661.418h85.382v-512.32h-85.382v512.32zM917.644 106.406c35.402 0 64.101-28.699 64.101-64.101v-64.101h-939.438v64.101c0 35.402 28.699 64.101 64.101 64.101h811.185zM853.543 149.097h-85.408v512.32h85.408v-512.32z" />
<glyph unicode="&#xe920;" glyph-name="ssbj" d="M716.8 345.6h170.667v-34.133h-170.667v34.133zM716.8 174.933h170.667v-34.133h-170.667v34.133zM0-29.867h1024v-34.133h-1024v34.133zM648.533-29.867v887.467c0 37.703-30.564 68.267-68.267 68.267h-409.6c-37.703 0-68.267-30.564-68.267-68.267v-887.467h-34.133v887.467c0 56.554 45.846 102.4 102.4 102.4h409.6c56.554 0 102.4-45.846 102.4-102.4v-887.467h-34.133zM921.6-29.867v512c0 37.703-30.564 68.267-68.267 68.267h-170.667v34.133h170.667c56.554 0 102.4-45.846 102.4-102.4v-512h-34.133zM170.667 379.733v136.533h170.667v-136.533h-170.667zM307.2 482.133h-102.4v-68.267h102.4v68.267zM409.6 379.733v136.533h170.667v-136.533h-170.667zM546.133 482.133h-102.4v-68.267h102.4v68.267zM170.667 89.6v136.533h170.667v-136.533h-170.667zM307.2 192h-102.4v-68.267h102.4v68.267zM409.6 89.6v136.533h170.667v-136.533h-170.667zM546.133 192h-102.4v-68.267h102.4v68.267zM170.667 669.867v136.533h170.667v-136.533h-170.667zM307.2 772.267h-102.4v-68.267h102.4v68.267zM409.6 669.867v136.533h170.667v-136.533h-170.667zM546.133 772.267h-102.4v-68.267h102.4v68.267z" />
<glyph unicode="&#xe921;" glyph-name="syjr" d="M856.832 738.987c-71.509 141.466-185.003 217.532-328.704 220.928v0h-32.427c-143.701-3.413-257.195-79.479-328.704-220.911-103.253-204.39-92.331-495.889-55.808-546.389 47.104-65.024 230.4-84.173 287.061-88.576l10.069-1.007c0.683-42.189-1.195-78.507-6.656-86.494-12.8-13.039-131.243-46.575-232.619-44.834l-0.512-34.133q3.072 0 6.144 0c91.477 0 225.28 29.013 251.051 54.886 20.139 20.258 18.432 105.387 14.507 163.994 22.33-7.243 48.070-11.72 74.76-12.367l2.040-0.006c23.215 0.636 45.334 4.228 66.343 10.412-5.757-59.018-7.293-143.31 12.675-163.466 25.771-25.89 159.744-54.903 251.221-54.903 2.048 0 3.925 0 5.973 0l-0.512 34.133c-101.205-1.519-219.648 31.829-232.107 44.373-5.632 8.243-7.68 44.203-7.168 86.016 0 0 0 1.092 0.171 2.884 58.368 4.625 252.245 24.644 299.008 89.122 36.693 50.449 47.616 341.948-55.808 546.338zM515.328 178.159c-67.119 1.932-127.131 30.829-169.87 76.183-55.068 60.811-79.474 153.517-72.818 275.97 111.822 7.083 209.17 63.482 271.342 147.489 47.745-65.411 116.701-113.595 196.869-133.203 3.17-61.424-3.315-215.263-81.822-303.071-34.85-38.97-85.279-63.382-141.411-63.382-0.805 0-1.61 0.005-2.413 0.015zM885.163 212.736c-12.204-13.878-27.717-24.56-45.319-30.841l-0.761 63.49h-33.963v-75.827c-16.043-4.864-33.28-9.165-50.859-12.868v34.236h-33.963v-40.653c-34.304-5.82-79.531-10.24-105.301-12.356 0.512 12.817 1.195 25.020 1.536 29.286 183.979 89.242 159.573 405.436 159.573 405.436-166.912 24.252-230.741 170.889-230.741 170.889-56.435-106.845-166.394-178.663-293.228-179.745-7.145-0.001-11.071 0.323-11.071 0.323-23.552-254.771 77.824-354.987 164.181-394.53 0.853-10.496 1.536-21.35 2.048-32.222l-9.045 0.99c-25.088 2.048-59.051 5.888-94.549 11.947v40.653h-33.963v-34.236c-17.579 3.703-34.816 8.004-51.029 12.868v75.827h-33.963v-63.727c-18.344 6.567-33.847 17.239-45.978 30.961-24.678 34.029-42.769 310.611 58.437 510.872 66.56 131.516 167.424 199.424 300.032 202.325h29.355c132.608-2.901 233.472-70.81 300.032-202.325 101.205-200.277 83.115-476.894 58.539-510.771z" />
<glyph unicode="&#xe922;" glyph-name="syxs" d="M904.533 21.333h-785.067c-65.98 0-119.467 53.487-119.467 119.467v512h204.8v221.867h819.2v-733.867c0-65.98-53.487-119.467-119.467-119.467zM204.8 618.667h-170.667v-477.867c0-47.128 38.205-85.333 85.333-85.333s85.333 38.205 85.333 85.333v477.867zM989.867 840.533h-750.933v-699.733c0-0.026 0-0.058 0-0.089 0-33.406-13.759-63.599-35.918-85.22l701.518-0.024c47.128 0 85.333 38.205 85.333 85.333v699.733zM307.2 260.267h614.4v-34.133h-614.4v34.133zM682.667 669.867h238.933v-307.2h-238.933v307.2zM716.8 396.8h170.667v238.933h-170.667v-238.933zM307.2 396.8h273.067v-34.133h-273.067v34.133zM307.2 533.333h273.067v-34.133h-273.067v34.133zM307.2 669.867h273.067v-34.133h-273.067v34.133z" />
<glyph unicode="&#xe923;" glyph-name="tel2" d="M819.627 82.987c-55.851-55.851-264.021-2.901-469.717 202.752s-258.56 413.867-202.795 469.675c48.469 48.384 107.435 132.949 195.883 22.827s44.971-140.8-4.907-190.805c-34.987-34.901 37.888-123.179 114.133-199.381s164.48-148.992 199.424-114.176c49.963 49.963 80.768 93.44 190.848 4.949s25.6-147.456-22.869-195.84v0z" />
<glyph unicode="&#xe924;" glyph-name="tel1" d="M912.412 237.426l-122.311 122.311c-13.714 15.901-33.641 26.117-55.968 26.848-22.532-0.89-42.4-11.064-56.11-26.756-12.651-12.636-45.59-45.603-46.87-46.712-4.486-4.624-10.156-8.075-16.522-9.865-0.949-0.125-1.749-0.161-2.558-0.161-4.855 0-9.408 1.293-13.334 3.553l-228.421 228.482c-2.208 3.706-3.513 8.172-3.513 12.943 0 0.901 0.047 1.792 0.137 2.669 2.21 7.665 6.434 14.274 12.071 19.341l44.468 44.463c16.44 13.231 26.872 33.351 26.872 55.908s-10.431 42.677-26.734 55.8l-122.449 122.419c-13.918 15.849-33.954 26.037-56.38 26.848-0.157 0.004-0.177 0.004-0.198 0.004-22.828 0-43.124-10.839-56.023-27.651l-77.891-89.057c-16.606-21.757-26.607-49.331-26.607-79.24 0-3.245 0.118-6.463 0.349-9.649-0.025-118.3 89.006-284.018 226.791-421.945s303.957-227.157 422.684-227.157c2.759-0.206 5.977-0.324 9.222-0.324 29.905 0 57.477 9.989 79.562 26.813l88.568 77.561c16.941 13.215 27.745 33.615 27.79 56.54-0.787 22.376-10.894 42.238-26.534 55.938zM734.123 53.191c-124.928 0-294.599 112.782-399.388 217.572-149.476 149.504-217.543 311.865-217.543 399.417-0.17 2.245-0.267 4.863-0.267 7.503 0 22.254 6.887 42.9 18.645 59.922l77.537 88.536c5.983 10.127 16.843 16.813 29.266 16.813 1.203 0 2.392-0.063 3.563-0.185 12.918-1.365 24.273-7.745 32.133-17.148l122.373-122.388c10.464-7.493 17.28-19.503 17.578-33.12-0.675-13.504-7.387-25.266-17.462-32.76l-44.631-44.569c-10.198-9.484-17.547-21.904-20.704-35.912-0.627-3.372-0.934-6.713-0.934-10.126 0-11.715 3.624-22.583 9.813-31.545l0.163-0.269 234.524-234.382c9.64-6.182 21.402-9.855 34.023-9.855 2.545 0 5.054 0.149 7.521 0.44 12.483 2.751 23.551 8.848 32.318 17.313 1.204 1.062 37.47 37.243 48.564 48.337 7.57 10.135 19.363 16.756 32.722 17.235 13.581-0.216 25.477-6.915 32.816-17.113l122.395-122.433c9.591-8.011 16.077-19.458 17.558-32.426 0.131-1.253 0.194-2.442 0.194-3.645 0-12.422-6.686-23.283-16.655-29.179l-89.018-77.853c-16.692-11.543-37.365-18.439-59.649-18.439-2.622 0-5.222 0.095-7.796 0.283z" />
<glyph unicode="&#xe925;" glyph-name="top" d="M511.545 626.972l403.684-402.261 22.101 22.073-425.785 424.277-425.785-424.277 22.13-22.073z" />
<glyph unicode="&#xe926;" glyph-name="touzi" d="M904.294 72.311v375.467h34.372v-375.467h-34.389zM989.867 766.14l-160.819-160.819c15.156-19.815 24.286-44.941 24.286-72.2 0-65.98-53.487-119.467-119.467-119.467s-119.467 53.487-119.467 119.467c0 0.075 0 0.15 0 0.225 0 30.93-2.065 16.475-2.065 16.475l-164.676 82.825c-20.1-38.983-60.080-65.179-106.179-65.179-15.72 0-30.728 3.046-44.467 8.58l-98.425-141.102c24.801-22.046 40.349-54.033 40.349-89.652 0-66.149-53.625-119.774-119.774-119.774s-119.774 53.625-119.774 119.774c0 66.149 53.625 119.774 119.774 119.774 18.48 0 35.982-4.185 51.611-11.659l97.258 139.336c-28.209 22.064-46.172 56.105-46.172 94.341 0 65.98 53.487 119.467 119.467 119.467s119.467-53.487 119.467-119.467c0-8.095-0.805-16.003-2.34-23.647l165.828-82.59c18.779 42.682 60.698 71.944 109.451 71.944 27.158 0 52.195-9.080 72.241-24.37l160.392 160.912h-78.899v34.133h136.533v-136.533h-34.133v79.206zM119.467 430.933c-47.128 0-85.333-38.205-85.333-85.333s38.205-85.333 85.333-85.333c47.128 0 85.333 38.205 85.333 85.333s-38.205 85.333-85.333 85.333zM341.333 772.267c-47.128 0-85.333-38.205-85.333-85.333s38.205-85.333 85.333-85.333c47.128 0 85.333 38.205 85.333 85.333s-38.205 85.333-85.333 85.333zM733.867 618.667c-47.128 0-85.333-38.205-85.333-85.333s38.205-85.333 85.333-85.333c47.128 0 85.333 38.205 85.333 85.333s-38.205 85.333-85.333 85.333zM119.467 72.738h-34.389v119.159h34.389v-119.159zM392.533 72.738h-34.389v306.893h34.389v-306.893zM665.6 72.738h-34.389v204.493h34.389v-204.493z" />
<glyph unicode="&#xe927;" glyph-name="wechat" d="M175.561 143.988c0.396-0.021 0.794-0.032 1.195-0.032 3.126 0 6.098 0.66 8.645 1.793 48.526 23.609 128.057 61.611 149.902 70.542 10.638-1.024 21.276-2.617 29.465-3.909 21.25-3.592 43.022-5.645 65.596-6.047l-0.524 41.483c-19.99 0.539-39.603 2.586-56.365 5.678-13.54 1.934-26.738 3.868-39.745 4.888-0.586 0.045-1.177 0.068-1.775 0.068-2.483 0-4.874-0.398-6.95-1.087-13.881-4.665-72.647-32.597-114.972-52.85 25.031 89.031 10.069 98.702-0.66 105.102-80.457 46.218-135.407 131.825-138.547 230.941 0 161.28 161.109 292.523 359.14 292.523s359.083-131.243 359.083-292.523h42.382c0 184.206-180.053 334.108-401.465 334.108s-401.522-149.902-401.514-334.501c2.754-110.924 62.892-207.604 152.905-265.174-5.389-37.238-14.57-73.249-25.895-103.725-0.696-2.060-1.073-4.266-1.073-6.56 0-6.298 2.842-11.931 7.315-15.688 3.707-3.139 8.504-5.033 13.742-5.033 0.060 0 0.119 0 0.17 0.001zM858.283 21.333c-3.704 0.012-7.189 0.937-10.245 2.561-47.347 24.514-86.419 47.722-124.108 72.844-7.471-4.18-29.373-6.114-42.571-6.114-202.354 0-313.799 90.51-313.799 254.976 0 140.686 140.8 255.090 313.799 255.090s314.197-114.404 314.197-255.090c-0.605-58.769-23.803-112.005-61.306-151.537-10.483-9.889-22.15-18.951-34.64-26.827-8.901-6.24-20.222-13.749-25.91-18.528 0.796-31.687 5.689-104.334 6.030-105.188 0.029-0.409 0.045-0.887 0.045-1.369 0-7.354-3.844-13.81-9.632-17.468-3.32-2.12-7.266-3.35-11.499-3.35-0.047 0-0.094 0-0.141 0zM735.573 136.078c0.039 0 0.086 0 0.133 0 5.781 0 11.020-2.324 14.831-6.090 24.044-17.323 51.532-34.313 80.197-49.367 2.119 25.021 0.242 58.87 0.242 74.856 6.658 21.186 22.448 37.76 42.635 45.351 11.221 6.968 20.506 13.883 29.243 21.415 30.447 31.937 49.59 75.462 50.261 123.453 0.001 117.835-121.741 213.636-271.359 213.636s-271.36-95.801-271.36-213.504c0-176.356 147.57-213.447 271.36-213.447 17.636 0 51.655 3.812 51.655 3.812 0.129 0.004 0.281 0.006 0.434 0.006 0.689 0 1.368-0.043 2.035-0.128zM288.882 656.498c-0.005-0.237-0.008-0.516-0.008-0.796 0-21.805 17.676-39.481 39.481-39.481s39.481 17.676 39.481 39.481c0 21.802-17.672 39.476-39.472 39.481-0.052 0-0.112 0-0.173 0-21.445 0-38.856-17.272-39.080-38.664zM512.853 656.498c-0.005-0.237-0.008-0.516-0.008-0.796 0-21.805 17.676-39.481 39.481-39.481s39.481 17.676 39.481 39.481c0 21.802-17.672 39.476-39.472 39.481-0.052 0-0.112 0-0.173 0-21.445 0-38.856-17.272-39.080-38.664zM548.864 388.437c-0.004-0.186-0.006-0.406-0.006-0.626 0-18.851 15.282-34.133 34.133-34.133s34.133 15.282 34.133 34.133c0 18.849-15.279 34.13-34.127 34.133-18.537-0.124-33.556-15.005-33.906-33.475zM743.481 388.437c-0.004-0.186-0.006-0.406-0.006-0.626 0-18.851 15.282-34.133 34.133-34.133s34.133 15.282 34.133 34.133c0 18.849-15.279 34.13-34.127 34.133-18.537-0.124-33.556-15.005-33.906-33.475z" />
<glyph unicode="&#xe928;" glyph-name="wechat2" d="M175.561 143.988c0.396-0.021 0.794-0.032 1.195-0.032 3.126 0 6.098 0.66 8.645 1.793 48.526 23.609 128.057 61.611 149.902 70.542 10.638-1.024 21.276-2.617 29.465-3.909 21.25-3.592 43.022-5.645 65.596-6.047l-0.524 41.483c-19.99 0.539-39.603 2.586-56.365 5.678-13.54 1.934-26.738 3.868-39.745 4.888-0.586 0.045-1.177 0.068-1.775 0.068-2.483 0-4.874-0.398-6.95-1.087-13.881-4.665-72.647-32.597-114.972-52.85 25.031 89.031 10.069 98.702-0.66 105.102-80.457 46.218-135.407 131.825-138.547 230.941 0 161.28 161.109 292.523 359.14 292.523s359.083-131.243 359.083-292.523h42.382c0 184.206-180.053 334.108-401.465 334.108s-401.522-149.902-401.514-334.501c2.754-110.924 62.892-207.604 152.905-265.174-5.389-37.238-14.57-73.249-25.895-103.725-0.696-2.060-1.073-4.266-1.073-6.56 0-6.298 2.842-11.931 7.315-15.688 3.707-3.139 8.504-5.033 13.742-5.033 0.060 0 0.119 0 0.17 0.001zM858.283 21.333c-3.704 0.012-7.189 0.937-10.245 2.561-47.347 24.514-86.419 47.722-124.108 72.844-7.471-4.18-29.373-6.114-42.571-6.114-202.354 0-313.799 90.51-313.799 254.976 0 140.686 140.8 255.090 313.799 255.090s314.197-114.404 314.197-255.090c-0.605-58.769-23.803-112.005-61.306-151.537-10.483-9.889-22.15-18.951-34.64-26.827-8.901-6.24-20.222-13.749-25.91-18.528 0.796-31.687 5.689-104.334 6.030-105.188 0.029-0.409 0.045-0.887 0.045-1.369 0-7.354-3.844-13.81-9.632-17.468-3.32-2.12-7.266-3.35-11.499-3.35-0.047 0-0.094 0-0.141 0zM735.573 136.078c0.039 0 0.086 0 0.133 0 5.781 0 11.020-2.324 14.831-6.090 24.044-17.323 51.532-34.313 80.197-49.367 2.119 25.021 0.242 58.87 0.242 74.856 6.658 21.186 22.448 37.76 42.635 45.351 11.221 6.968 20.506 13.883 29.243 21.415 30.447 31.937 49.59 75.462 50.261 123.453 0.001 117.835-121.741 213.636-271.359 213.636s-271.36-95.801-271.36-213.504c0-176.356 147.57-213.447 271.36-213.447 17.636 0 51.655 3.812 51.655 3.812 0.129 0.004 0.281 0.006 0.434 0.006 0.689 0 1.368-0.043 2.035-0.128zM288.882 656.498c-0.005-0.237-0.008-0.516-0.008-0.796 0-21.805 17.676-39.481 39.481-39.481s39.481 17.676 39.481 39.481c0 21.802-17.672 39.476-39.472 39.481-0.052 0-0.112 0-0.173 0-21.445 0-38.856-17.272-39.080-38.664zM512.853 656.498c-0.005-0.237-0.008-0.516-0.008-0.796 0-21.805 17.676-39.481 39.481-39.481s39.481 17.676 39.481 39.481c0 21.802-17.672 39.476-39.472 39.481-0.052 0-0.112 0-0.173 0-21.445 0-38.856-17.272-39.080-38.664zM548.864 388.437c-0.004-0.186-0.006-0.406-0.006-0.626 0-18.851 15.282-34.133 34.133-34.133s34.133 15.282 34.133 34.133c0 18.849-15.279 34.13-34.127 34.133-18.537-0.124-33.556-15.005-33.906-33.475zM743.481 388.437c-0.004-0.186-0.006-0.406-0.006-0.626 0-18.851 15.282-34.133 34.133-34.133s34.133 15.282 34.133 34.133c0 18.849-15.279 34.13-34.127 34.133-18.537-0.124-33.556-15.005-33.906-33.475z" />
<glyph unicode="&#xe929;" glyph-name="xmbz" d="M833.075 484.813h-442.547c-13.432 0-24.32-10.888-24.32-24.32s10.888-24.32 24.32-24.32h442.547c13.432 0 24.32 10.888 24.32 24.32s-10.888 24.32-24.32 24.32zM833.075 281.242h-442.547c-13.432 0-24.32-10.888-24.32-24.32s10.888-24.32 24.32-24.32h442.547c13.432 0 24.32 10.888 24.32 24.32s-10.888 24.32-24.32 24.32zM960.794 750.259h-317.056l-5.658 15.693c-38.067 104.96-110.515 129.792-164.557 132.096h-410.394c-0.115 0.001-0.25 0.001-0.386 0.001-34.375 0-62.275-27.721-62.564-62.028v-776.015c0.304-34.337 28.21-62.055 62.59-62.055 0.127 0 0.254 0 0.38 0.001h897.67c0.107-0.001 0.234-0.001 0.361-0.001 34.38 0 62.286 27.718 62.589 62.027v628.227c-0.318 34.34-28.23 62.055-62.615 62.055-0.127 0-0.254 0-0.38-0.001zM47.13 806.272c0 48.256 17.613 41.472 90.726 41.472h261.504c110.797 0 139.622-23.782 160.947-60.774l15.693-36.89h-528.742zM972.57 121.421c0-72.397-25.6-73.267-86.63-73.267h-748.083c-74.65 0-86.656 6.144-86.656 85.734v566.042h850.253c79.206 0 71.142-30.976 71.142-85.734v-492.774zM164.301 502.298h79.36v-79.053h-79.36v79.053zM164.301 296.755h79.36v-79.155h-79.36v79.053z" />
<glyph unicode="&#xe92a;" glyph-name="yb" d="M904.021 106.667h-783.701c-30.974 0.265-55.981 25.435-55.981 56.446 0 0.166 0.001 0.331 0.002 0.497v569.191c-0.001 0.14-0.002 0.306-0.002 0.471 0 31.011 25.007 56.181 55.956 56.446h783.726c30.974-0.265 55.981-25.435 55.981-56.446 0-0.166-0.001-0.331-0.002-0.497v-569.191c0.001-0.127 0.002-0.278 0.002-0.429 0-31.019-25.002-56.2-55.953-56.488h-0.027zM841.259 669.013c-5.020 5.15-12.025 8.345-19.776 8.345s-14.756-3.195-19.77-8.339l-97.030-97.585-136.533-138.795v0.341c-14.585-14.782-34.839-23.938-57.231-23.938-21.165 0-40.419 8.18-54.774 21.55l0.048-1.495-183.467 186.325 1.365 0.853-51.627 52.736c-5.027 5.153-12.039 8.348-19.797 8.348s-14.771-3.196-19.792-8.343c-5.071-5.192-8.196-12.292-8.196-20.123s3.125-14.931 8.196-20.123l177.061-181.072-177.067-180.053c-5.066-5.186-8.191-12.287-8.191-20.117s3.125-14.931 8.196-20.123c5.021-5.147 12.033-8.343 19.792-8.343s14.771 3.196 19.792 8.343l176.944 179.931 46.293-47.317c2.337-2.691 4.734-5.142 7.268-7.446l3.058-3.093v0.384c14.169-11.966 32.638-19.239 52.806-19.239 23.223 0 44.194 9.643 59.127 25.144l0.024-1.638 53.888 54.187 177.877-180.864c5.027-5.153 12.039-8.348 19.797-8.348s14.771 3.196 19.792 8.343c5.071 5.192 8.196 12.292 8.196 20.123s-3.125 14.931-8.196 20.123l-177.659 180.645 179.413 180.48c5.066 5.186 8.191 12.287 8.191 20.117s-3.125 14.931-8.196 20.123l0.005-0.006zM841.088 669.056v0z" />
<glyph unicode="&#xe92b;" glyph-name="ydzn" d="M942.251 582.639c-0.326 13.136-10.129 23.886-22.813 25.686l-2.548 0.016c-32.536 1.014-58.525 27.632-58.525 60.32 0 0.55 0.007 1.098 0.022 1.644 0.425 8.519 2.267 16.571 5.295 24.014 1.434 3.299 2.369 7.707 2.369 12.333 0 10.698-5.004 20.228-12.8 26.375l-0.805 0.583-59.29 34.867-0.751 0.324c-3.576 1.683-7.767 2.665-12.187 2.665-0.131 0-0.263-0.001-0.394-0.003 0.003 0-0.017 0-0.037 0-9.475 0-18.018-3.988-24.043-10.377-6.518-7.116-29.029-27.323-46.215-27.323s-39.953 20.651-46.507 27.904c-6.048 6.527-14.666 10.599-24.235 10.599-0.036 0-0.072 0-0.108 0-0.070 0.001-0.16 0.001-0.25 0.001-4.38 0-8.541-0.943-12.289-2.637l-0.512-0.334-61.44-35.652-0.683-0.546c-7.907-6.184-12.941-15.725-12.941-26.442 0-4.622 0.937-9.026 2.63-13.031 2.773-6.738 4.615-14.796 5.031-23.229 0.020-0.642 0.027-1.196 0.027-1.752 0-32.682-25.98-59.297-58.414-60.317l-2.586-0.002c-12.788-1.805-22.568-12.509-22.92-25.564-2.717-14.611-4.522-31.671-5.008-49.060 0.507-18.35 2.298-35.41 5.284-52.055 0.065-11 9.851-21.697 22.502-23.491l2.548-0.016c32.534-1.004 58.526-27.619 58.526-60.304 0-0.562-0.008-1.121-0.023-1.679-0.411-8.509-2.254-16.557-5.294-23.988-1.434-3.311-2.37-7.725-2.37-12.358 0-10.675 4.967-20.189 12.717-26.359l0.751-0.565 58.18-34.406 0.785-0.666c3.608-1.703 7.838-2.697 12.299-2.697 0.080 0 0.16 0 0.24 0.001 0 0 0.014 0 0.029 0 9.632 0 18.287 4.18 24.252 10.824 8.287 9.502 30.747 29.044 47.233 29.044 17.903 0 40.96-21.965 47.514-29.679 5.988-6.795 14.711-11.059 24.43-11.059 0.021 0 0.043 0 0.064 0 0.017 0 0.041 0 0.066 0 4.437 0 8.65 0.962 12.441 2.688l0.563 0.282 60.279 35.243 0.717 0.546c7.89 6.188 12.912 15.721 12.912 26.428 0 4.628-0.938 9.036-2.635 13.045-2.758 6.747-4.598 14.815-5.030 23.255-0.021 0.65-0.028 1.204-0.028 1.76 0 32.688 25.99 59.306 58.432 60.318l2.448 0.002c12.806 1.795 22.609 12.497 22.988 25.562 2.723 14.62 4.528 31.68 5.008 49.071-0.408 18.34-2.179 35.493-5.208 52.207zM914.483 493.141c-47.787-3.874-84.941-50.79-84.941-101.837 0.357-12.645 2.83-24.608 7.076-35.693l-53.156-30.15c-6.259 7.508-13.017 14.185-20.365 20.166-15.493 12.428-34.775 20.168-55.822 21.178-20.688-0.634-39.326-7.972-54.14-19.875-7.367-5.978-14.072-12.537-20.124-19.666l-51.055 29.872c3.992 10.365 6.465 22.351 6.823 34.866 0.009 0.546 0.012 1.008 0.012 1.47 0 50.642-37.384 92.552-86.061 99.638-3.029 12.077-4.452 25.881-4.452 40.018s1.423 27.941 4.133 41.278c49.57 4.484 87.88 46.318 88.095 97.145-0.37 12.67-2.842 24.631-7.077 35.72l54.403 35.709c6.236-6.636 12.928-12.678 20.084-18.142 14.236-12.149 31.868-19.949 51.249-21.667 18.861 0.669 35.646 7.549 48.821 18.594 8.29 6.414 15.773 13.15 22.73 20.394l52.239-35.566c-4.922-10.995-8.236-23.755-9.26-37.156 1.482-51.003 40.654-92.007 90.342-96.398 2.889-12.085 4.327-25.942 4.327-40.135 0-14.069-1.413-27.809-4.105-41.084zM709.683 625.476c-0.106 0-0.232 0.001-0.358 0.001-50.295 0-91.068-40.772-91.068-91.068s40.772-91.068 91.068-91.068c50.295 0 91.067 40.772 91.068 91.067 0 0.021 0 0.045 0 0.069 0 50.141-40.545 90.812-90.639 91.016zM709.291 474.368c-0.152-0.001-0.332-0.002-0.512-0.002-32.858 0-59.494 26.637-59.494 59.494s26.637 59.494 59.494 59.494c32.851 0 59.483-26.626 59.494-59.474 0-0.047 0-0.102 0-0.156 0-32.633-26.333-59.115-58.908-59.356zM315.733 857.6v-34.133h153.6v34.133h-153.6zM725.333 260.267v-221.867c0-56.554-45.846-102.4-102.4-102.4h-443.733c-56.554 0-102.4 45.846-102.4 102.4v819.2c0 56.554 45.846 102.4 102.4 102.4h443.733c56.554 0 102.4-45.846 102.4-102.4v-34.133h-34.133v34.133c0 37.703-30.564 68.267-68.267 68.267h-443.733c-37.703 0-68.267-30.564-68.267-68.267v-85.333h341.333v-34.133h-341.333v-546.133h580.267v68.267h34.133zM110.933 157.867v-119.467c0-37.703 30.564-68.267 68.267-68.267h443.733c37.703 0 68.267 30.564 68.267 68.267v119.467h-580.267zM401.067 4.267c28.277 0 51.2 22.923 51.2 51.2s-22.923 51.2-51.2 51.2c-28.277 0-51.2-22.923-51.2-51.2s22.923-51.2 51.2-51.2zM401.067 72.533c9.426 0 17.067-7.641 17.067-17.067s-7.641-17.067-17.067-17.067c-9.426 0-17.067 7.641-17.067 17.067s7.641 17.067 17.067 17.067z" />
<glyph unicode="&#xe92c;" glyph-name="zhanghao1" d="M512 960c-283.307 0-512-228.693-512-512s228.693-512 512-512 512 228.693 512 512-228.693 512-512 512zM512-29.867c-264.533 0-477.867 213.333-477.867 477.867s213.333 477.867 477.867 477.867c264.533 0 477.867-213.333 477.867-477.867s-213.333-477.867-477.867-477.867zM517.12 741.547c-78.507 0-139.947-63.147-139.947-139.947s63.147-139.947 139.947-139.947c78.507 0 139.947 63.147 139.947 139.947 0 0 0 0 0 0 1.707 76.8-61.44 139.947-139.947 139.947zM624.64 599.893c0-58.027-47.787-105.813-105.813-105.813s-105.813 47.787-105.813 105.813c0 58.027 47.787 105.813 105.813 105.813 58.027 1.707 105.813-46.080 105.813-105.813 0 0 0 0 0 0zM631.467 430.933c-5.12 0-215.040 0-221.867 0s-136.533-5.12-136.533-136.533v-153.6h494.933v153.6c0 131.413-131.413 136.533-136.533 136.533zM733.867 174.933h-426.667v117.76c0 100.693 109.227 104.107 117.76 104.107s180.907 0 191.147 0 117.76-3.413 117.76-104.107v-117.76z" />
<glyph unicode="&#xe92d;" glyph-name="zijin" d="M0 46.933v580.267h1024v-580.267zM989.867 593.067h-955.733v-512h955.733v512zM512 542.259c0.061 0 0.133 0 0.205 0 113.221 0 205.005-91.784 205.005-205.005s-91.784-205.005-205.005-205.005c-113.155 0-204.898 91.677-205.005 204.807 0.222 113.108 91.734 204.757 204.757 205.203zM512 166.4c94.257 0 170.667 76.41 170.667 170.667s-76.41 170.667-170.667 170.667c-94.257 0-170.667-76.41-170.667-170.667 0.954-93.87 76.796-169.712 170.576-170.666zM451.925 437.043l60.075-60.143 60.075 60.143 24.235-24.218-58.539-58.692h42.496v-34.133h-51.2v-17.067h51.2v-34.133h-51.2v-34.133h-34.133v34.133h-51.2v34.133h51.2v17.067h-51.2v34.133h42.496l-58.539 58.692zM102.571 746.667h802.133v-34.253h-802.133v34.253zM170.667 849.203h682.667v-34.27h-682.667v34.253z" />
<glyph unicode="&#xe92e;" glyph-name="zyfk" d="M712.585 850.517c-10.541 2.6-19.681 5.874-28.372 9.949-22.322 10.619-42.263 22.659-60.841 36.432-7.265 5.178-23.273 17.466-37.404 28.32-12.476 9.557-25.378 19.456-28.023 21.146-13.457 8.556-29.853 13.635-47.434 13.635-17.217 0-33.296-4.871-46.935-13.309-3.030-3.466-9.857-9.217-22.026-19.457-9.506-8.038-27.426-22.938-40.823-32.427-23.937-18.339-51.84-33.043-82.031-42.603-3.405-0.917-4.889-1.293-6.34-1.634-36.577-8.203-78.585-12.904-121.69-12.904-1.618 0-3.235 0.007-4.85 0.020-11.699-0.002-23.27 0.391-25.523 0.613h-0.614c-1.826 0.119-3.413 0.137-5.734 0.137-0.14 0.001-0.307 0.001-0.473 0.001-22.227 0-42.526-8.26-57.992-21.879-16.598-14.619-27.106-36.008-27.21-59.853v-153.925c0-242.859 69.154-427.827 205.568-549.751 41.565-37.433 89.904-68.398 142.786-90.715 24.932-10.847 50.21-18.903 76.494-24.175 6.877-1.161 12.075-1.599 17.375-1.599s10.498 0.438 15.559 1.279c28.37 5.6 53.887 13.664 78.083 24.197 54.166 22.621 102.831 53.58 145.204 91.436 136.902 121.518 206.568 306.487 206.568 549.362v153.907c-0.155 23.414-10.317 44.424-26.419 58.989l-1.059 0.932c-15.333 13.544-35.604 21.812-57.805 21.812-0.156 0-0.312 0-0.468-0.001-2.416 0-3.97 0-5.898-0.154-2.526-0.239-14.234-0.649-26.283-0.649-1.305-0.011-2.848-0.017-4.392-0.017-42.863 0-84.63 4.694-124.814 13.595zM867.533 798.020h0.478l0.427-3.806 0.188 3.772h1.075c0.195 0.003 0.424 0.005 0.655 0.005 11.612 0 22.22-4.295 30.324-11.383l-0.002-0.005c8.412-7.326 13.734-18.014 13.858-29.947v-153.929c0-231.014-65.109-405.914-193.519-519.885-38.508-34.429-83.268-62.917-132.196-83.436-22.285-9.583-44.799-16.758-68.176-21.567-4.54-0.763-7.206-0.98-9.923-0.98-0.054 0-0.108 0-0.162 0-0.006 0-0.023 0-0.040 0-2.869 0-5.684 0.23-8.427 0.672-24.942 5.054-47.181 12.214-68.259 21.525-49.585 20.848-94.012 49.319-132.634 84.11-127.066 113.58-191.698 288.514-191.698 519.562v153.907c0.109 11.956 5.421 22.651 13.776 29.945 8.116 7.102 18.751 11.409 30.392 11.409 0.132 0 0.264-0.001 0.396-0.002 2.284 0 2.506 0 2.864 0 3.26-0.324 15.889-0.768 29.218-0.768 1.296-0.010 2.828-0.015 4.362-0.015 46.567 0 91.944 5.097 135.602 14.764-2.236-0.31-0.325 0.168 1.587 0.68 37.252 11.449 69.649 28.341 98.18 50.051 21.525 15.782 41.067 31.925 59.646 49.095l3.437-3.589-3.021 4.506 0.41 0.239c6.914 4.192 15.271 6.673 24.207 6.673 9.247 0 17.874-2.657 25.158-7.249 1.17-0.756 5.761-4.271 18.578-14.102 14.814-11.418 35.106-27.051 45.909-34.731 19.656-14.577 41.935-27.974 65.473-39.151 12.343-5.706 24.022-9.858 36.148-12.875 40.409-9.191 85.272-14.297 131.328-14.297 1.702 0 3.403 0.007 5.102 0.021 13.58-0.019 25.612 0.442 29.282 0.783zM700.535 490.377c-0.154 11.193-9.263 20.208-20.478 20.208-0.061 0-0.121 0-0.182-0.001h-130.568l130.458 147.473c3.127 3.502 5.038 8.148 5.038 13.24 0 6.113-2.754 11.583-7.090 15.237-3.653 3.083-8.374 4.941-13.53 4.941-6.2 0-11.773-2.688-15.616-6.963l-129.365-146.212-129.331 146.193c-3.867 4.282-9.44 6.962-15.638 6.962-5.151 0-9.87-1.851-13.527-4.923-4.331-3.658-7.083-9.131-7.083-15.247 0-5.085 1.902-9.725 5.033-13.248l130.457-147.453h-124.587c-0.175 0.005-0.381 0.009-0.587 0.009-11.16 0-20.207-9.047-20.207-20.207s9.047-20.207 20.207-20.207c0.206 0 0.412 0.003 0.617 0.009l131.793-0.001v-66.458h-81.101c-0.175 0.005-0.381 0.009-0.587 0.009-11.16 0-20.207-9.047-20.207-20.207s9.047-20.207 20.207-20.207c0.206 0 0.412 0.003 0.617 0.009l81.071-0.001v-185.327c0-11.405 9.246-20.651 20.651-20.651s20.651 9.246 20.651 20.651v185.327h91.887c0.175-0.005 0.381-0.009 0.587-0.009 11.16 0 20.207 9.047 20.207 20.207s-9.047 20.207-20.207 20.207c-0.206 0-0.412-0.003-0.617-0.009l-91.908 0.001v66.458h142.302c0.046 0 0.101-0.001 0.156-0.001 11.209 0 20.315 9.005 20.478 20.175z" />
<glyph unicode="&#xe92f;" glyph-name="close" d="M803.328 667.136l-218.624-218.624 218.112-218.624c9.369-9.369 15.164-22.312 15.164-36.608 0-28.593-23.179-51.772-51.772-51.772-14.296 0-27.239 5.795-36.608 15.164l-218.624 218.112-217.6-217.6c-9.493-10.017-22.892-16.25-37.748-16.25-28.701 0-51.968 23.267-51.968 51.968 0 14.728 6.127 28.025 15.97 37.481l218.129 218.129-218.624 218.112c-9.434 9.434-15.27 22.468-15.27 36.864 0 28.793 23.341 52.134 52.134 52.134 14.396 0 27.43-5.835 36.864-15.27l218.112-218.624 219.136 219.136c9.473 9.861 22.77 15.988 37.498 15.988 28.701 0 51.968-23.267 51.968-51.968 0-14.855-6.233-28.255-16.226-37.726z" />
<glyph unicode="&#xe930;" glyph-name="liulan1" horiz-adv-x="1463" d="M731.429 886.857c380.343 0 658.286-343.771 658.286-438.857s-277.943-438.857-658.286-438.857c-373.029 0-658.286 314.514-658.286 438.857s285.257 438.857 658.286 438.857zM731.429 960c-402.286 0-731.429-336.457-731.429-512s329.143-512 731.429-512 731.429 373.029 731.429 512-329.143 512-731.429 512v0zM731.429 667.429c117.029 0 219.429-95.086 219.429-219.429s-95.086-219.429-219.429-219.429-219.429 102.4-219.429 219.429 95.086 219.429 219.429 219.429zM731.429 740.571c-160.914 0-292.571-131.657-292.571-292.571s131.657-292.571 292.571-292.571 292.571 131.657 292.571 292.571-131.657 292.571-292.571 292.571v0z" />
<glyph unicode="&#xe931;" glyph-name="lend" d="M723.035 539.87l29.346 70.677c3.566 8.59 3.586 18.057 0.053 26.666-3.533 8.603-10.199 15.312-18.772 18.888l-151.434 63.222c-17.686 7.376-38.064-1.042-45.427-18.769l-64.344-154.938c-0.605-1.451-0.875-2.942-0.947-4.427h-25.207l45.269 141.394c0.684 2.151 2.171 3.899 4.172 4.935 1.994 1.036 4.277 1.227 6.428 0.534 6.902-2.23 14.331 1.59 16.555 8.53s-1.586 14.369-8.508 16.599c-18.252 5.865-37.84-4.229-43.703-22.523l-46.48-145.174c-0.454-1.425-0.599-2.863-0.572-4.282h-20.2l22.049 116.529c0.869 4.579 5.31 7.587 9.85 6.729 7.119-1.359 14.022 3.338 15.384 10.503 1.355 7.158-3.336 14.066-10.475 15.425-18.838 3.596-37.044-8.854-40.61-27.729l-6.501-34.365h-61.455c-30.366 0-54.902-23.823-55.862-54.243 0.004-0.132-0.004-107.427-0.026-321.884 0-32.426 26.313-58.809 58.652-58.809h380.522c32.34 0 58.652 26.383 58.652 58.809v230.207c-0.007 28.217-19.93 51.829-46.407 57.496zM582.245 690.475l131.978-54.943c9.851-4.101 14.512-15.411 10.411-25.262-0.025-0.061-0.051-0.121-0.077-0.182l-28.598-66.767c-0.29-0.699-0.48-1.418-0.645-2.138h-196.176l57.844 138.881c4.102 9.849 15.411 14.509 25.261 10.409zM327.504 601.871h56.461l-10.922-57.727c-0.191-0.996-0.237-1.986-0.197-2.962h-42.578c-17.726 0-32.136 14.382-32.3 32.116 0.559 16.032 13.508 28.573 29.537 28.573zM710.783 219.721h-380.522c-17.825 0-32.333 14.541-32.333 32.419v272.417c9.277-6.169 20.391-9.764 32.333-9.764h380.522c17.825 0 32.333-14.541 32.333-32.419v-230.24c0-17.872-14.508-32.413-32.333-32.413zM729.358 361.862c0-10.671-8.65-19.321-19.321-19.321s-19.321 8.65-19.321 19.321c0 10.671 8.65 19.321 19.321 19.321s19.321-8.65 19.321-19.321zM743.649 322.415v-22.541h-64.243c-20.123 0-36.991 14.783-36.991 33.811v56.352c0 19.029 16.868 33.811 36.991 33.811h65.436v-22.541h-65.436c-8.287 0-14.451-5.401-14.451-11.27v-56.352c0-5.869 6.163-11.27 14.451-11.27h64.243zM512-56.272c-278.502 0-504.272 225.77-504.272 504.272s225.77 504.272 504.272 504.272c278.502 0 504.272-225.77 504.272-504.272s-225.77-504.272-504.272-504.272zM512-33.087c265.697 0 481.087 215.39 481.087 481.087s-215.39 481.087-481.087 481.087c-265.697 0-481.087-215.39-481.087-481.087s215.39-481.087 481.087-481.087z" />
<glyph unicode="&#xe932;" glyph-name="loan" d="M769.104 364.331c-8.517 15.235-22.889 23.114-43.117 23.64-9.582 0-19.163-1.576-29.277-5.253 1.597 7.355 2.129 14.709 1.597 22.064-4.258 53.583-25.018 104.015-60.151 147.092l-23.421 28.368 30.341 70.394c1.597 4.203 1.597 8.931-1.065 12.608s-6.388 5.779-11.178 5.779c-45.106 7.175-78.935 10.763-101.488 10.763-20.623 0-51.558-3.588-92.804-10.763-4.258 0-8.517-2.101-11.178-5.779s-2.662-8.405-1.065-12.608l30.341-70.394-23.421-28.368c-35.132-42.552-55.892-92.983-60.151-145.516-0.532-4.728 0-8.931 0-12.608-14.372-5.779-32.471-15.76-47.908-24.69-1.065 6.304-6.388 11.032-13.308 11.032h-47.375c-7.452 0-13.308-5.779-13.308-13.133v-167.58c0-7.355 5.855-13.133 13.308-13.133h47.375c7.452 0 13.308 5.779 13.308 13.133v12.608l19.695 15.235c14.905 11.032 33.535 16.285 52.166 14.709 22.357-1.576 38.326-3.152 46.843-5.253l52.698-11.032c25.551-5.253 51.634-4.728 75.055 1.576 8.517 2.101 15.437 4.728 21.292 7.88l163.95 89.831c6.92 3.677 12.243 9.981 14.372 17.336 2.662 7.355 1.597 15.235-2.129 22.064zM746.215 349.622c0-0.525-0.532-1.051-1.597-1.576l-163.95-90.356c-3.726-2.101-9.049-4.203-15.437-5.779-19.695-5.253-41.52-5.779-62.812-1.051l-52.698 11.032c-10.114 2.101-27.148 3.677-50.569 5.779-25.018 1.576-49.505-5.253-69.732-19.962l-3.726-2.627v93.508c2.129 1.051 4.791 2.627 6.92 4.203 16.502 9.456 42.052 24.165 55.36 28.368 5.855 1.576 12.775 3.152 21.292 3.677 16.502 1.051 33.003-1.576 50.037-7.355 39.391-13.133 66.006-19.962 78.781-19.962h53.763c6.388 0 11.711-5.253 11.711-11.032v-0.525c0-3.152-1.065-5.779-3.194-7.88s-5.323-3.152-7.985-3.152h-103.267c-7.452 0-13.308-5.779-13.308-13.133s5.855-13.133 13.308-13.133h103.267c10.114 0 19.695 3.677 27.148 11.032 4.791 4.728 8.517 11.032 10.114 17.336l73.991 30.469c7.452 3.152 14.905 4.728 21.825 4.728 13.308 0 17.566-5.253 20.228-9.981 0.532-1.051 0.532-2.101 0.532-2.627zM453.446 535.063l28.745 34.672c3.194 3.677 3.726 8.931 2.129 13.659l-25.551 59.362c21.672 7.175 45.864 10.763 72.576 10.763s53.444-3.588 80.196-10.763l-25.551-59.362c-2.129-4.728-1.065-9.456 2.129-13.659l28.745-34.672c31.938-38.874 50.569-84.052 54.295-131.332v-1.051c1.065-12.608-3.194-25.216-11.178-34.672l-35.132-14.709c-6.388 11.557-19.163 19.962-33.535 19.962h-53.231c-9.049 0-36.197 7.355-70.264 18.912-20.228 6.829-40.455 9.981-60.151 8.931-2.662 0-5.855-0.525-8.517-0.525 0 1.051 0 2.101 0 3.152 3.726 47.28 22.889 92.983 54.295 131.332zM277.785 352.774h20.76v-140.788h-20.76v140.788zM503.764 457.772h19.104v12.108h-19.104c-8.038 0-12.057 2.635-12.057 7.904 0 5.157 4.019 7.736 12.057 7.736h10.783l-25.387 39.436c-2.038 3.139-3.368 5.381-3.991 6.727s-0.934 2.831-0.934 4.456c0 2.915 0.892 5.255 2.675 7.021s4.090 2.649 6.92 2.649c2.887 0 5.222-0.869 7.005-2.607s3.863-4.541 6.241-8.408l27.425-42.547 24.538 40.108c0.906 1.57 1.868 3.209 2.887 4.919s2.009 3.167 2.972 4.372c0.962 1.205 2.165 2.2 3.608 2.985s3.156 1.177 5.137 1.177c2.83 0 5.137-0.855 6.92-2.565s2.675-3.798 2.675-6.264c0-1.962-0.354-3.756-1.061-5.381s-1.825-3.672-3.354-6.138l-24.453-39.94h10.783c7.981 0 11.972-2.579 11.972-7.736 0-5.269-3.991-7.904-11.972-7.904h-19.189v-12.108h19.189c7.981 0 11.972-2.635 11.972-7.904 0-5.157-3.991-7.736-11.972-7.736h-19.189v-6.727c0-11.379-3.821-17.069-11.462-17.069-7.755 0-11.632 5.69-11.632 17.069v6.727h-19.104c-8.038 0-12.057 2.579-12.057 7.736 0 5.269 4.019 7.904 12.057 7.904zM512-56.272c-278.502 0-504.272 225.77-504.272 504.272s225.77 504.272 504.272 504.272c278.502 0 504.272-225.77 504.272-504.272s-225.77-504.272-504.272-504.272zM512-33.087c265.697 0 481.087 215.39 481.087 481.087s-215.39 481.087-481.087 481.087c-265.697 0-481.087-215.39-481.087-481.087s215.39-481.087 481.087-481.087z" />
<glyph unicode="&#xe933;" glyph-name="recharge" d="M736.823 658.918h-430.326c-30.504 0-55.328-24.818-55.328-55.328v-172.13c0-30.51 24.824-55.328 55.328-55.328h55.328v-153.688c0-16.949 13.789-30.738 30.738-30.738h258.196c16.949 0 30.738 13.789 30.738 30.738v153.688h55.328c30.504 0 55.328 24.818 55.328 55.328v172.13c0 30.51-24.824 55.328-55.328 55.328zM681.496 535.968h12.295v-36.885h-12.295v36.885zM361.825 499.083h-12.295v36.885h12.295v-36.885zM650.758 216.297h-258.196c-3.332 0-6.148 2.816-6.148 6.148v314.566c1.986-0.406 4.045-0.621 6.148-0.621h258.196c2.102 0 4.162 0.215 6.148 0.621v-314.566c0-3.332-2.816-6.148-6.148-6.148zM767.561 431.46c0-16.949-13.789-30.738-30.738-30.738h-55.328v73.77h36.885v86.065h-393.441v-86.065h36.885v-73.77h-55.328c-16.949 0-30.738 13.789-30.738 30.738v172.13c0 16.949 13.789 30.738 30.738 30.738h430.326c16.949 0 30.738-13.789 30.738-30.738v-172.13zM456.583 382.809l-17.385 17.385 82.463 82.463 82.463-82.463-17.385-17.385-52.783 52.783v-154.745h-24.59v154.745zM512-56.272c-278.502 0-504.272 225.77-504.272 504.272s225.77 504.272 504.272 504.272c278.502 0 504.272-225.77 504.272-504.272s-225.77-504.272-504.272-504.272zM512-33.087c265.697 0 481.087 215.39 481.087 481.087s-215.39 481.087-481.087 481.087c-265.697 0-481.087-215.39-481.087-481.087s215.39-481.087 481.087-481.087z" />
<glyph unicode="&#xe934;" d="M1024 448c0-282.77-229.23-512-512-512s-512 229.23-512 512c0 282.77 229.23 512 512 512s512-229.23 512-512z" />
<glyph unicode="&#xe935;" d="M512-40.727c-269.917 0-488.727 218.811-488.727 488.727s218.811 488.727 488.727 488.727c269.917 0 488.727-218.811 488.727-488.727s-218.811-488.727-488.727-488.727zM406.725 687.439l239.439-239.439-239.439-239.439c-10.906-10.906-10.906-28.589 0-39.495s28.589-10.906 39.495 0l259.187 259.187c10.906 10.906 10.906 28.589 0 39.495l-259.187 259.187c-10.906 10.906-28.589 10.906-39.495 0s-10.906-28.589 0-39.495z" />
<glyph unicode="&#xe936;" glyph-name="website" d="M512 960c70.596 0 137.006-13.45 199.232-40.349s116.446-63.432 162.661-109.598c46.214-46.166 82.786-100.328 109.715-162.487s40.393-128.499 40.392-199.020c0-71.248-13.464-137.952-40.392-200.11s-63.5-116.321-109.715-162.487c-46.215-46.166-100.435-82.699-162.661-109.598s-128.636-40.349-199.232-40.349c-70.596 0-137.007 13.45-199.232 40.349s-116.445 63.432-162.661 109.598c-46.215 46.166-82.787 100.328-109.715 162.487s-40.392 128.862-40.392 200.11c0 70.52 13.464 136.86 40.392 199.020s63.5 116.322 109.715 162.487c46.215 46.165 100.435 82.698 162.661 109.598s128.636 40.35 199.232 40.349zM651.735 306.777c2.183 2.907 1.092 6.542-3.275 10.905s-9.461 9.271-15.283 14.722c-5.823 5.451-10.917 11.086-15.283 16.903s-5.821 11.27-4.365 16.358c3.639 11.632 4.913 20.174 3.821 25.627s-4.549 9.088-10.371 10.905c-5.822 1.817-14.191 2.544-25.109 2.181s-24.018-0.545-39.301-0.545c-8.006 0-14.556-0.363-19.65-1.090s-9.825-1.272-14.192-1.636c-4.367-0.363-9.098-0.727-14.192-1.090s-10.916-0.182-17.467 0.545c-10.189 0.727-18.013 2.545-23.471 5.453s-10.553 5.817-15.283 8.725c-4.73 2.908-10.734 5.453-18.012 7.634s-17.831 3.636-31.66 4.363c-19.65 0.727-33.66 1.636-42.030 2.726s-14.374 2.181-18.012 3.271c-3.639 1.090-6.55 1.817-8.734 2.181s-6.551 0.545-13.1 0.545c-6.55-0.727-16.557-3.999-30.021-9.815s-27.11-12.541-40.939-20.174c-13.829-7.633-25.838-15.448-36.026-23.446s-15.283-14.541-15.283-19.629c0-14.541 0.91-26.173 2.729-34.897s4.367-15.449 7.642-20.174c3.276-4.725 6.733-8.542 10.371-11.451s7.278-6.18 10.917-9.815c3.639-3.635 8.552-6.179 14.738-7.634s12.918-2.363 20.196-2.726c7.278-0.363 14.010-1.271 20.196-2.726s11.098-3.999 14.738-7.634c7.278-8.724 14.92-12.359 22.927-10.905s15.103 3.817 21.288 7.089c6.186 3.272 11.28 4.544 15.283 3.816s6.369-7.634 7.096-20.719c0-5.816 1.092-10.178 3.275-13.086s5.094-5.089 8.734-6.544l13.1-6.544c5.095-2.909 10.553-6.907 16.375-11.996 5.823-5.816 7.824-11.269 6.005-16.358s-4.549-9.996-8.188-14.722c-3.639-4.726-7.096-9.815-10.371-15.267s-3.093-10.723 0.546-15.812c5.095-7.997 10.553-13.813 16.375-17.448s11.462-6.725 16.921-9.27c5.459-2.545 10.371-5.453 14.738-8.725s7.278-8.542 8.734-15.812c0-2.181 2.547-6.361 7.642-12.54s10.007-12.54 14.738-19.084c4.73-6.543 8.551-11.996 11.463-16.358s2.184-6.179-2.183-5.453c8.733-1.454 18.013-2.181 27.838-2.181s16.193 1.818 19.104 5.453l2.183 2.181v1.090l3.275 1.090c1.455 0.727 3.457 1.636 6.005 2.726s6.005 3.453 10.371 7.089c8.733 5.816 17.103 13.45 25.109 22.902s14.92 19.812 20.741 31.081c5.822 11.269 10.734 22.719 14.738 34.352s6.733 22.538 8.188 32.716c1.455 9.451 3.821 16.358 7.096 20.719s6.187 8.179 8.734 11.451c2.547 3.272 4.731 7.634 6.551 13.086s1.638 14.722-0.546 27.808c-2.183 16.721-0.182 28.899 6.005 36.533s11.463 13.995 15.829 19.084l-0.005-0.006zM759.813 135.563c10.189 12.359 15.465 22.537 15.829 30.535s-8.188 14.177-25.655 18.538c-18.195 4.362-31.113 6.725-38.755 7.089s-14.738-3.453-21.288-11.451c-6.55-7.997-11.281-16.176-14.192-24.537s-2.183-19.811 2.183-34.352c2.183-6.543 4.003-11.814 5.459-15.812s3.276-6.543 5.459-7.634c2.183-1.091 5.458-1.455 9.825-1.090s10.553 1.636 18.558 3.816c8.733 2.181 17.103 7.27 25.109 15.267s13.828 14.54 17.467 19.629v0.001zM789.288 453.997c5.095 5.089 13.646 8.906 25.655 11.451s24.199 5.816 36.572 9.815c12.373 3.999 23.29 9.633 32.751 16.903s14.556 17.448 15.283 30.535c0.728 13.087 0.728 25.083 0 35.988s-2.911 21.81-6.551 32.716c-3.639 10.907-8.552 22.357-14.738 34.352s-14.009 25.627-23.471 40.896c-10.189 15.994-19.468 29.444-27.838 40.349s-16.557 20.174-24.563 27.808c-8.006 7.634-16.375 14.54-25.109 20.719s-18.559 12.54-29.475 19.084c-11.644 6.543-23.107 13.632-34.388 21.266s-23.472 12.723-36.572 15.267c-13.1 2.544-27.292 0.908-42.575-4.909s-32.751-18.54-52.401-38.167l-18.558-19.629c-8.006-7.27-16.375-14.177-25.109-20.719s-17.103-12.177-25.109-16.903c-8.006-4.726-15.284-7.089-21.834-7.089-5.823 0-14.92-0.727-27.292-2.181s-24.926-5.089-37.662-10.905c-12.736-5.816-23.653-13.995-32.751-24.537s-12.919-24.537-11.463-41.985c0.728-19.629 4.185-32.352 10.371-38.167s14.192-9.087 24.017-9.815c9.825-0.728 21.47-1.455 34.934-2.181s27.838-5.452 43.121-14.177c18.195-4.362 35.298-8.725 51.309-13.086 13.828-3.636 27.837-8.18 42.030-13.633s26.019-11.087 35.48-16.903c10.917-6.543 15.283-15.086 13.1-25.627s-6.004-21.265-11.463-32.17c-5.459-10.905-10.008-21.447-13.647-31.626s-1.456-18.176 6.551-23.992c10.917-7.997 18.922-13.086 24.017-15.267s10.553-2.726 16.375-1.636c5.822 1.090 13.828 2.727 24.017 4.909s25.837 3.273 46.942 3.271c-5.823 0-6.914 2.181-3.275 6.544s9.28 9.815 16.921 16.358c7.641 6.543 15.829 13.267 24.563 20.174s16.012 12.541 21.834 16.903v-0.003z" />
<glyph unicode="&#xe937;" glyph-name="Withdrawals" d="M736.823 658.918h-430.326c-30.504 0-55.328-24.818-55.328-55.328v-172.13c0-30.51 24.824-55.328 55.328-55.328h55.328v-153.688c0-16.949 13.789-30.738 30.738-30.738h258.196c16.949 0 30.738 13.789 30.738 30.738v153.688h55.328c30.504 0 55.328 24.818 55.328 55.328v172.13c0 30.51-24.824 55.328-55.328 55.328zM681.496 535.968h12.295v-36.885h-12.295v36.885zM361.825 499.083h-12.295v36.885h12.295v-36.885zM650.758 216.297h-258.196c-3.332 0-6.148 2.816-6.148 6.148v314.712c1.986-0.406 4.045-0.621 6.148-0.621h258.196c2.102 0 4.162 0.215 6.148 0.621v-314.712c0-3.332-2.816-6.148-6.148-6.148zM767.561 431.46c0-16.949-13.789-30.738-30.738-30.738h-55.328v73.77h36.885v86.065h-393.441v-86.065h36.885v-73.77h-55.328c-16.949 0-30.738 13.789-30.738 30.738v172.13c0 16.949 13.789 30.738 30.738 30.738h430.326c16.949 0 30.738-13.789 30.738-30.738v-172.13zM521.66 275.756l-82.463 82.463 17.385 17.385 52.783-52.783v154.745h24.59v-154.745l52.783 52.783 17.385-17.385zM512-56.272c-278.502 0-504.272 225.77-504.272 504.272s225.77 504.272 504.272 504.272c278.502 0 504.272-225.77 504.272-504.272s-225.77-504.272-504.272-504.272zM512-33.087c265.697 0 481.087 215.39 481.087 481.087s-215.39 481.087-481.087 481.087c-265.697 0-481.087-215.39-481.087-481.087s215.39-481.087 481.087-481.087z" />
</font>
</defs>
</svg>
