<?xml version="1.0" encoding="UTF-8" standalone="no"?>
<svg width="32px" height="29px" viewBox="0 0 32 29" version="1.1" xmlns="http://www.w3.org/2000/svg" xmlns:xlink="http://www.w3.org/1999/xlink">
    <!-- Generator: Sketch 49 (51002) - http://www.bohemiancoding.com/sketch -->
    <title>Combined Shape</title>
    <desc>Created with Sketch.</desc>
    <defs></defs>
    <g id="WEB_2.4" stroke="none" stroke-width="1" fill="none" fill-rule="evenodd">
        <g id="首页" transform="translate(-1278.000000, -1421.000000)" fill="#F2D5AA">
            <g id="产品特色" transform="translate(0.000000, 941.000000)">
                <g id="03" transform="translate(1266.000000, 466.000000)">
                    <g id="a">
                        <g id="car" transform="translate(12.000000, 14.500000)">
                            <path d="M2.83333333,10 L6.48717949,1.23076923 C6.7977186,0.485475353 7.52593163,1.48317286e-16 8.33333333,8.8817842e-16 L23.6666667,4.4408921e-16 C24.4740684,2.95771924e-16 25.2022814,0.485475353 25.5128205,1.23076923 L29.1666667,10 L30,10 C31.1045695,10 32,10.8954305 32,12 L32,21 C32,22.1045695 31.1045695,23 30,23 L27,23 L27,27 C27,27.8284271 26.3284271,28.5 25.5,28.5 C24.6715729,28.5 24,27.8284271 24,27 L24,23 L8,23 L8,27 C8,27.8284271 7.32842712,28.5 6.5,28.5 C5.67157288,28.5 5,27.8284271 5,27 L5,23 L2,23 C0.8954305,23 1.3527075e-16,22.1045695 0,21 L0,12 C-1.3527075e-16,10.8954305 0.8954305,10 2,10 L2.83333333,10 Z M2,12 L2,21 L30,21 L30,12 L2,12 Z M8,18.5 C6.8954305,18.5 6,17.6045695 6,16.5 C6,15.3954305 6.8954305,14.5 8,14.5 C9.1045695,14.5 10,15.3954305 10,16.5 C10,17.6045695 9.1045695,18.5 8,18.5 Z M24,18.5 C22.8954305,18.5 22,17.6045695 22,16.5 C22,15.3954305 22.8954305,14.5 24,14.5 C25.1045695,14.5 26,15.3954305 26,16.5 C26,17.6045695 25.1045695,18.5 24,18.5 Z M23.6666667,2 L8.33333333,2 L5,10 L27,10 L23.6666667,2 Z" id="Combined-Shape"></path>
                        </g>
                    </g>
                </g>
            </g>
        </g>
    </g>
</svg>