<?xml version="1.0" encoding="UTF-8"?>
<svg width="23px" height="23px" viewBox="0 0 23 23" version="1.1" xmlns="http://www.w3.org/2000/svg" xmlns:xlink="http://www.w3.org/1999/xlink">
    <!-- Generator: Sketch 49 (51002) - http://www.bohemiancoding.com/sketch -->
    <title>公司网址@1x</title>
    <desc>Created with Sketch.</desc>
    <defs></defs>
    <g id="WEB_2.3" stroke="none" stroke-width="1" fill="none" fill-rule="evenodd">
        <g id="联系我们" transform="translate(-146.000000, -900.000000)" fill="#9A9A9A" fill-rule="nonzero">
            <g id="公司地址" transform="translate(120.000000, 648.000000)">
                <g id="信息" transform="translate(24.000000, 102.000000)">
                    <g id="公司网址" transform="translate(2.000000, 150.000000)">
                        <path d="M11.5,0 C13.0856421,0 14.5772895,0.3020938 15.9749422,0.906281401 C17.3725949,1.510469 18.5904309,2.33102834 19.6284503,3.36795941 C20.6664697,4.40489047 21.4879038,5.62142968 22.0927525,7.01757703 C22.6976012,8.41372438 23.0000171,9.90378337 23,11.487754 C23,13.0880526 22.6975842,14.5862756 22.0927525,15.982423 C21.4879208,17.3785703 20.6664868,18.5951095 19.6284503,19.6320406 C18.5904139,20.6689717 17.3725778,21.489531 15.9749422,22.0937186 C14.5773065,22.6979062 13.0856591,23 11.5,23 C9.91434085,23 8.42269346,22.6979062 7.02505781,22.0937186 C5.62742216,21.489531 4.40958611,20.6689717 3.37154967,19.6320406 C2.33351323,18.5951095 1.51207917,17.3785703 0.907247502,15.982423 C0.302415834,14.5862756 5.45548356e-16,13.0880526 0,11.487754 C0,9.90380041 0.302415834,8.41374142 0.907247502,7.01757703 C1.51207917,5.62141264 2.33351323,4.40487343 3.37154967,3.36795941 C4.40958611,2.33104538 5.62742216,1.51048605 7.02505781,0.906281401 C8.42269346,0.302076757 9.91434085,-1.70438546e-05 11.5,0 Z M14.6385763,14.6719977 C14.6876125,14.6067027 14.6630944,14.5250541 14.5650219,14.4270519 C14.4669494,14.3290498 14.3525229,14.2188272 14.2217425,14.0963841 C14.0909621,13.9739411 13.9765356,13.8473904 13.8784631,13.7167322 C13.7803906,13.5860741 13.7477083,13.4636054 13.7804162,13.3493264 C13.8621604,13.0880612 13.8907648,12.89619 13.8662297,12.7737128 C13.8416945,12.6512357 13.7640452,12.5695871 13.6332819,12.5287671 C13.5025185,12.487947 13.3145291,12.471619 13.0693137,12.479783 C12.8240983,12.487947 12.5298552,12.492029 12.1865844,12.492029 C12.0067677,12.492029 11.8596504,12.500193 11.7452325,12.5165211 C11.6308145,12.5328491 11.5245608,12.5450951 11.4264712,12.5532591 C11.3283816,12.5614231 11.2221279,12.5695871 11.10771,12.5777511 C10.993292,12.5859151 10.8625201,12.5818331 10.7153943,12.5655051 C10.4865414,12.5491771 10.3108111,12.5083485 10.1882034,12.4430194 C10.0655957,12.3776903 9.95116923,12.3123698 9.84492401,12.2470577 C9.73867879,12.1817457 9.60382056,12.1245891 9.44034931,12.075588 C9.27687807,12.0265869 9.0398439,11.9939224 8.72924683,11.9775944 C8.28788641,11.9612664 7.97321151,11.9408563 7.78522214,11.9163643 C7.59723276,11.8918723 7.46237453,11.8673803 7.38064744,11.8428883 C7.29892034,11.8183962 7.23353014,11.8020682 7.18447682,11.7939042 C7.13542351,11.7857402 7.03734246,11.7816582 6.8902337,11.7816582 C6.74310787,11.7979862 6.5183413,11.8714708 6.215934,12.002112 C5.9135267,12.1327531 5.60701598,12.2837957 5.29640184,12.4552399 C4.98578771,12.626684 4.71606271,12.8022272 4.48722685,12.9818694 C4.25839099,13.1615116 4.14396453,13.3084723 4.14394747,13.4227513 C4.14394747,13.7493457 4.16437924,14.0106194 4.20524279,14.2065726 C4.24610633,14.4025258 4.30332383,14.5535685 4.37689528,14.6597005 C4.45046672,14.7658326 4.52811599,14.8515632 4.60984308,14.9168923 C4.69157017,14.9822214 4.7733058,15.055706 4.85504995,15.137346 C4.93679411,15.2189861 5.04713421,15.2761427 5.18607027,15.3088157 C5.32500632,15.3414888 5.47620998,15.3618988 5.63968122,15.3700458 C5.80315247,15.3781928 5.95435612,15.3986028 6.09329218,15.4312758 C6.23222823,15.4639489 6.34256834,15.5211055 6.42431249,15.6027455 C6.58778374,15.7986987 6.75943623,15.8803473 6.93926995,15.8476913 C7.11910368,15.8150353 7.27848857,15.7619607 7.41742463,15.6884676 C7.55636069,15.6149745 7.67078715,15.5864005 7.76070401,15.6027455 C7.85062087,15.6190906 7.90375201,15.7742152 7.92009743,16.0681195 C7.92009743,16.1987606 7.94461556,16.2967372 7.99365181,16.3620493 C8.04268807,16.4273613 8.10807827,16.4763539 8.18982243,16.5090269 L8.48406555,16.6560046 C8.59850054,16.7213337 8.72109971,16.8111463 8.85186306,16.9254424 C8.98264347,17.0560835 9.0276019,17.1785522 8.98673836,17.2928483 C8.94587481,17.4071443 8.88457096,17.5173669 8.80282681,17.6235161 C8.72108265,17.7296652 8.64343338,17.8439698 8.569879,17.9664299 C8.49632462,18.08889 8.50041097,18.2072766 8.58213806,18.3215897 C8.69657306,18.5012149 8.81917222,18.6318476 8.94993557,18.7134876 C9.08069892,18.7951277 9.20738444,18.8645303 9.32999214,18.9216953 C9.45259984,18.9788604 9.56293995,19.044181 9.66101246,19.1176571 C9.75908497,19.1911331 9.82447518,19.3095197 9.85718307,19.4728169 C9.85718307,19.5218009 9.91440057,19.615687 10.0288356,19.7544751 C10.1432706,19.8932632 10.2536107,20.0361419 10.3598559,20.183111 C10.4661011,20.3300802 10.5519231,20.4525488 10.6173218,20.5505169 C10.6827205,20.6484849 10.6663751,20.6893135 10.5682856,20.6730025 C10.7644476,20.7056586 10.9728688,20.7219866 11.193549,20.7219866 C11.4142292,20.7219866 11.5572602,20.681158 11.6226418,20.5995009 L11.6716781,20.5505169 L11.6716781,20.5260249 L11.7452325,20.5015328 C11.7779233,20.4852048 11.8228817,20.4647948 11.8801078,20.4403028 C11.9373338,20.4158108 12.0149831,20.3627362 12.1130556,20.2810791 C12.3092176,20.150438 12.497207,19.9789683 12.6770237,19.76667 C12.8568404,19.5543717 13.0121304,19.321672 13.1428937,19.0685708 C13.2736571,18.8154695 13.3839972,18.5582778 13.473914,18.2969955 C13.5638309,18.0357132 13.6251347,17.7907674 13.6578256,17.5621582 C13.6905164,17.349877 13.7436475,17.1947523 13.817219,17.0967843 C13.8907904,16.9988162 13.9561806,16.9130856 14.0133896,16.8395925 C14.0705986,16.7660994 14.1196434,16.6681228 14.160524,16.5456627 C14.2014046,16.4232026 14.1973182,16.2150034 14.1482649,15.9210651 C14.0992286,15.5454867 14.1441871,15.2719669 14.2831402,15.1005058 C14.4220933,14.9290446 14.5406061,14.7861659 14.6386786,14.6718699 L14.6385763,14.6719977 Z M17.0661012,18.5176282 C17.2949542,18.2400349 17.413467,18.0114172 17.4216397,17.8317749 C17.4298124,17.6521327 17.2377367,17.5133361 16.8454125,17.415385 C16.4367429,17.3173999 16.1465861,17.2643254 15.9749422,17.2561614 C15.8032982,17.2479973 15.6439133,17.3337279 15.4967875,17.5133531 C15.3496617,17.6929783 15.2434079,17.8766855 15.1780263,18.0644747 C15.1126446,18.2522639 15.12899,18.5094556 15.2270625,18.83605 C15.2760988,18.9830191 15.3169709,19.1014057 15.3496788,19.1912098 C15.3823867,19.2810139 15.4232587,19.3381705 15.472295,19.3626795 C15.5213312,19.3871886 15.5948942,19.3953526 15.6929837,19.3871715 C15.7910733,19.3789905 15.9300179,19.3504165 16.1098175,19.3014495 C16.3059796,19.2524654 16.4939689,19.1381608 16.6737856,18.9585356 C16.8536023,18.7789105 16.9843742,18.6319498 17.0661012,18.5176537 L17.0661012,18.5176282 Z M17.7281419,11.3652939 C17.8425769,11.2509808 18.0346526,11.1652502 18.3043691,11.1081021 C18.5740855,11.0509541 18.8478969,10.9774695 19.1258031,10.8876484 C19.4037094,10.7978273 19.6489162,10.6712767 19.8614237,10.5079965 C20.0739312,10.3447164 20.1883577,10.1160987 20.2047031,9.8221433 C20.2210485,9.52818794 20.2210485,9.25875017 20.2047031,9.01382998 C20.1883577,8.76890979 20.1393129,8.52396403 20.0575688,8.27899271 C19.9758246,8.03402139 19.8654845,7.77682962 19.7265484,7.50741741 C19.5876124,7.2380052 19.4118821,6.93182088 19.1993575,6.58886443 C18.9705046,6.22961407 18.7620834,5.92752027 18.5740941,5.68258303 C18.3861047,5.4376458 18.2022017,5.22944659 18.022385,5.05798542 C17.8425683,4.88652424 17.654579,4.7313996 17.4584169,4.59261149 C17.2622548,4.45382338 17.0415746,4.31094475 16.7963762,4.16397559 C16.5348325,4.01700643 16.2773666,3.85779126 16.0239784,3.68633009 C15.7705903,3.51486891 15.496779,3.4005643 15.2025444,3.34341626 C14.9083098,3.28626821 14.5895485,3.32302328 14.2462606,3.45368147 C13.9029727,3.58433966 13.5106486,3.87009693 13.0692881,4.31095327 L12.6524544,4.75183518 C12.4726377,4.91513235 12.2846483,5.07025699 12.0884862,5.21720911 C11.8923242,5.36416122 11.7043348,5.49071184 11.5245181,5.59686097 C11.3447015,5.70301009 11.1812302,5.75608466 11.0341044,5.75608466 C10.903324,5.75608466 10.6989892,5.77241267 10.4211,5.80506869 C10.1432108,5.83772472 9.86123531,5.9193733 9.57517342,6.05001445 C9.28911154,6.1806556 9.04390467,6.36436278 8.83955281,6.60113601 C8.63520096,6.83790924 8.54937898,7.15224905 8.58208688,7.54415544 C8.5984323,7.98504587 8.67608157,8.27080314 8.81503468,8.40142724 C8.9539878,8.53205134 9.13380447,8.60553592 9.35448468,8.62188097 C9.57516489,8.63822603 9.83671718,8.65455404 10.1391415,8.67086501 C10.4415659,8.68717598 10.7644135,8.79331659 11.1076844,8.98928683 C11.5163539,9.08727195 11.9005054,9.18524854 12.2601387,9.28321662 C12.5707187,9.36487373 12.8853936,9.46694085 13.2041634,9.58941799 C13.5229332,9.71189513 13.7885719,9.83844575 14.0010794,9.96906985 C14.2462777,10.116039 14.3443587,10.3079102 14.2953225,10.5446834 C14.2462862,10.7814567 14.1604643,11.0223119 14.0378565,11.2672491 C13.9152488,11.5121864 13.8130729,11.7489681 13.7313288,11.9775944 C13.6495846,12.2062206 13.6986294,12.3858458 13.8784631,12.5164699 C14.1236615,12.6960951 14.3034781,12.8103997 14.4179131,12.8593838 C14.5323481,12.9083678 14.6549473,12.9206138 14.7857106,12.8961218 C14.916474,12.8716298 15.0962906,12.8348747 15.3251606,12.7858566 C15.5540306,12.7368384 15.9054827,12.7123464 16.3795169,12.7123805 C16.2487365,12.7123805 16.2242184,12.6633879 16.3059625,12.5654028 C16.3877067,12.4674177 16.5143922,12.3449491 16.6860191,12.197997 C16.857646,12.0510449 17.041549,11.9000022 17.2377281,11.7448691 C17.4339073,11.5897359 17.5973785,11.4631853 17.7281419,11.3652172 L17.7281419,11.3652939 Z"></path>
                    </g>
                </g>
            </g>
        </g>
    </g>
</svg>