<?xml version="1.0" encoding="UTF-8"?>
<svg width="57px" height="60px" viewBox="0 0 57 60" version="1.1" xmlns="http://www.w3.org/2000/svg" xmlns:xlink="http://www.w3.org/1999/xlink">
    <!-- Generator: Sketch 48.2 (47327) - http://www.bohemiancoding.com/sketch -->
    <title>银行存管@1x</title>
    <desc>Created with Sketch.</desc>
    <defs></defs>
    <g id="WEB" stroke="none" stroke-width="1" fill="none" fill-rule="evenodd">
        <g id="Group-6" transform="translate(-455.000000, -45.000000)" fill="#C8BCA5" fill-rule="nonzero">
            <g id="银行存管" transform="translate(455.000000, 44.000000)">
                <g transform="translate(0.000000, 1.000000)" id="Combined-Shape">
                    <path d="M9,22 L9,25 L19,25 L19,22 L9,22 Z M36,22 L50,22 L50,25 C50,26.1045695 49.1045695,27 48,27 L48,45 C49.1045695,45 50,45.8954305 50,47 L50,50 L52,50 C53.1045695,50 54,50.8954305 54,52 L54,57.7416992 C54,58.8462687 53.1045695,59.7416992 52,59.7416992 L5,59.7416992 C3.8954305,59.7416992 3,58.8462687 3,57.7416992 L3,52 C3,50.8954305 3.8954305,50 5,50 L7,50 L7,47 C7,45.8954305 7.8954305,45 9,45 L9,27 C7.8954305,27 7,26.1045695 7,25 L7,22 L21,22 L21,25 C21,26.1045695 20.1045695,27 19,27 L19,45 C20.1045695,45 21,45.8954305 21,47 L21,50 L36,50 L36,47 C36,45.8954305 36.8954305,45 38,45 L38,27 C36.8954305,27 36,26.1045695 36,25 L36,22 Z M48,50 L48,47 L46,47 L40,47 L38,47 L38,50 L48,50 Z M19,50 L19,47 L17,47 L11,47 L9,47 L9,50 L19,50 Z M46,27 L40,27 L40,45 L46,45 L46,27 Z M17,27 L11,27 L11,45 L17,45 L17,27 Z M5,52 L5,58 L52,58 L52,52 L5,52 Z M38,22 L38,25 L48,25 L48,22 L38,22 Z"></path>
                    <path d="M29.0547002,2.57165056 C28.7188008,2.34771762 28.2811992,2.34771762 27.9452998,2.57165056 L3.05085108,18.1679497 C2.77265241,18.3534155 2.60555128,18.6656468 2.60555128,19 C2.60555128,19.5522847 3.05326653,20 3.60555128,20 L53.3944487,20 C53.7288019,20 54.0410332,19.8328989 54.226499,19.5547002 C54.5328515,19.0951715 54.4086776,18.4743022 53.9491489,18.1679497 L29.0547002,2.57165056 Z M30.1641006,0.907549967 L55.0585493,16.5038491 C56.4371354,17.4229065 56.809657,19.2855145 55.8905996,20.6641006 C55.3342023,21.4986966 54.3975083,22 53.3944487,22 L3.60555128,22 C1.94869703,22 0.605551275,20.6568542 0.605551275,19 C0.605551275,17.9969404 1.10685468,17.0602465 1.94145069,16.5038491 L26.8358994,0.907549967 C27.8435976,0.235751145 29.1564024,0.235751145 30.1641006,0.907549967 Z M28.5,10 C29.8807119,10 31,11.1192881 31,12.5 C31,13.8807119 29.8807119,15 28.5,15 C27.1192881,15 26,13.8807119 26,12.5 C26,11.1192881 27.1192881,10 28.5,10 Z M28.5,8 C26.0147186,8 24,10.0147186 24,12.5 C24,14.9852814 26.0147186,17 28.5,17 C30.9852814,17 33,14.9852814 33,12.5 C33,10.0147186 30.9852814,8 28.5,8 Z"></path>
                </g>
            </g>
        </g>
    </g>
</svg>